<?xml version="1.0" encoding="iso-8859-1"?>

<!DOCTYPE svg PUBLIC "-//W3C//DTD SVG 1.1//EN" "http://www.w3.org/Graphics/SVG/1.1/DTD/svg11.dtd">
<!-- Uploaded to: SVG Repo, www.svgrepo.com, Generator: SVG Repo Mixer Tools -->
<svg height="800px" width="800px" version="1.1" id="_x35_" xmlns="http://www.w3.org/2000/svg" xmlns:xlink="http://www.w3.org/1999/xlink" 
	 viewBox="0 0 512 512"  xml:space="preserve">
<g>
	<g>
		<polygon style="fill:#FCF0C8;" points="511.966,31.968 509.429,36.197 475.685,93.197 433.568,110.365 315.846,228.087 
			315.846,228.172 269.079,274.855 253.095,258.871 237.111,242.887 283.879,196.204 401.601,78.397 418.769,36.281 475.77,2.538 
			479.998,0 495.982,15.984 		"/>
		<path style="fill:#A36C3C;" d="M287.684,303.778c-2.452-0.422-5.074-0.592-7.611-0.422h-0.169c-1.86,0.169-3.721,0.422-5.497,0.93
			c-0.592,0.169-1.184,0.339-1.776,0.508c-4.398,1.437-8.542,3.89-12.094,7.441c-2.96,2.961-5.243,6.427-6.681,10.149
			c-0.761,1.861-1.353,3.722-1.691,5.582c0.084,0.085,0,0.085,0,0.085c-0.423,2.199-0.677,4.398-0.507,6.512
			c0,1.606,0.169,3.213,0.423,4.82l-79.497-79.497c1.607,0.254,3.214,0.423,4.821,0.423c8.034,0.254,16.153-2.707,22.327-8.88
			c5.328-5.412,8.372-12.347,8.88-19.367c0.169-2.621,0.085-5.242-0.423-7.78L287.684,303.778z"/>
		<path style="fill:#C77353;" d="M253.264,349.954L108.225,494.909c-17.675,17.675-44.146,21.651-65.712,11.755
			c-6.174-2.79-11.924-6.681-16.999-11.755l-8.457-8.457c-5.074-5.075-8.965-10.825-11.755-16.999
			c-9.895-21.566-5.92-48.036,11.755-65.712l144.954-145.038c3.806-3.722,10.064-3.722,13.785,0l1.607,1.606l37.127,37.126
			l38.734,38.734C256.985,339.89,256.985,346.148,253.264,349.954z"/>
		<g>
			<polygon style="fill:#655E4B;" points="43.628,444.851 31.172,426.912 166.566,291.518 179.022,309.457 			"/>
			<polygon style="fill:#655E4B;" points="67.115,468.337 85.053,480.793 220.447,345.399 202.508,332.944 			"/>
		</g>
		<path style="fill:#C77353;" d="M338.511,264.622l-35.435,35.435c-3.806,3.805-8.795,5.667-13.785,5.667
			c-0.761,0-1.522-0.085-2.283-0.169c-0.846-0.085-1.607-0.254-2.453-0.422c-1.607-0.339-3.214-0.931-4.651-1.777
			c-1.607-0.845-3.129-1.945-4.482-3.298l-31.714-31.714l-31.799-31.799c-1.353-1.352-2.453-2.875-3.298-4.482
			c-4.059-7.441-2.96-16.914,3.298-23.172l35.435-35.435c3.806-3.805,9.979-3.805,13.785,0l22.75,22.749l15.983,15.985
			l15.984,15.983l22.665,22.665C342.317,254.643,342.317,260.817,338.511,264.622z"/>
	</g>
	<path style="opacity:0.05;fill:#040000;" d="M303.065,300.084l35.46-35.46c3.8-3.799,3.799-10.016,0-13.816l-22.71-22.71
		l117.717-117.717l42.156-17.215l36.285-61.226L496,15.966L21.272,490.693l4.256,4.256c22.735,22.735,59.937,22.734,82.672,0
		l145.031-145.031c3.789-3.789,3.789-9.99,0-13.779l-1.589-1.59c-0.192-8.057,2.737-16.174,8.884-22.32
		c5.427-5.427,12.394-8.362,19.498-8.848C287.419,307.345,296.845,306.305,303.065,300.084z"/>
</g>
</svg>