<?xml version="1.0" encoding="UTF-8"?>
<svg xmlns="http://www.w3.org/2000/svg" xmlns:xlink="http://www.w3.org/1999/xlink" width="200px" height="200px" viewBox="0 0 200 200" version="1.1">
<defs>
<filter id="alpha" filterUnits="objectBoundingBox" x="0%" y="0%" width="100%" height="100%">
  <feColorMatrix type="matrix" in="SourceGraphic" values="0 0 0 0 1 0 0 0 0 1 0 0 0 0 1 0 0 0 1 0"/>
</filter>
<mask id="mask0">
  <g filter="url(#alpha)">
<rect x="0" y="0" width="200" height="200" style="fill:rgb(0%,0%,0%);fill-opacity:0.980392;stroke:none;"/>
  </g>
</mask>
<clipPath id="clip1">
  <rect x="0" y="0" width="200" height="200"/>
</clipPath>
<g id="surface5" clip-path="url(#clip1)">
<path style=" stroke:none;fill-rule:evenodd;fill:rgb(0.784314%,0.392157%,0.392157%);fill-opacity:1;" d="M 199.804688 141.601562 C 199.804688 145.378906 199.804688 149.152344 199.804688 152.929688 C 198.40625 161.390625 194.761719 168.746094 188.867188 175 C 187.671875 175.246094 186.5 175.183594 185.351562 174.804688 C 184.691406 173.578125 184.496094 172.273438 184.765625 170.898438 C 195.453125 157.71875 196.753906 143.65625 188.671875 128.710938 C 183.609375 121.113281 176.644531 116.167969 167.773438 113.867188 C 152.902344 110.71875 140.726562 115.144531 131.25 127.148438 C 122.558594 140.785156 122.6875 154.324219 131.640625 167.773438 C 137.652344 175.539062 145.53125 180.097656 155.273438 181.445312 C 159.277344 181.949219 163.3125 181.753906 167.382812 180.859375 C 170.613281 179.824219 173.804688 178.71875 176.953125 177.539062 C 178.09375 177.558594 179.070312 177.949219 179.882812 178.710938 C 180.449219 180.105469 180.253906 181.40625 179.296875 182.617188 C 168.15625 188.386719 156.632812 189.234375 144.726562 185.15625 C 139.25 182.941406 134.433594 179.75 130.273438 175.585938 C 126.597656 177.203125 122.820312 178.503906 118.945312 179.492188 C 119.011719 182.488281 118.945312 185.484375 118.75 188.476562 C 117.472656 192.488281 114.800781 195.027344 110.742188 196.09375 C 100.976562 196.355469 91.210938 196.355469 81.445312 196.09375 C 77.835938 195.21875 75.296875 193.070312 73.828125 189.648438 C 73.289062 186.289062 73.09375 182.902344 73.242188 179.492188 C 67.125 177.953125 61.332031 175.609375 55.859375 172.460938 C 53.972656 174.347656 52.082031 176.238281 50.195312 178.125 C 45.367188 180.742188 40.808594 180.351562 36.523438 176.953125 C 30.730469 171.160156 24.933594 165.363281 19.140625 159.570312 C 16.199219 156.132812 15.417969 152.226562 16.796875 147.851562 C 17.1875 147.070312 17.578125 146.289062 17.96875 145.507812 C 19.875 143.734375 21.632812 141.84375 23.242188 139.84375 C 20.476562 134.511719 18.199219 128.976562 16.40625 123.242188 C 13.898438 122.925781 11.359375 122.730469 8.789062 122.65625 C 4.289062 121.863281 1.292969 119.324219 -0.195312 115.039062 C -0.195312 104.882812 -0.195312 94.726562 -0.195312 84.570312 C 1.292969 80.285156 4.289062 77.746094 8.789062 76.953125 C 11.359375 76.878906 13.898438 76.683594 16.40625 76.367188 C 18.199219 70.632812 20.476562 65.097656 23.242188 59.765625 C 21.632812 57.765625 19.875 55.875 17.96875 54.101562 C 16.128906 50.757812 15.738281 47.242188 16.796875 43.554688 C 17.425781 42.277344 18.207031 41.105469 19.140625 40.039062 C 24.933594 34.246094 30.730469 28.449219 36.523438 22.65625 C 40.808594 19.261719 45.367188 18.871094 50.195312 21.484375 C 52.082031 23.371094 53.972656 25.261719 55.859375 27.148438 C 61.332031 24 67.125 21.65625 73.242188 20.117188 C 73.09375 16.703125 73.289062 13.320312 73.828125 9.960938 C 75.296875 6.539062 77.835938 4.390625 81.445312 3.515625 C 91.210938 3.253906 100.976562 3.253906 110.742188 3.515625 C 114.800781 4.582031 117.472656 7.121094 118.75 11.132812 C 118.945312 14.125 119.011719 17.121094 118.945312 20.117188 C 125.0625 21.644531 130.855469 23.988281 136.328125 27.148438 C 138.503906 24.710938 140.914062 22.5625 143.554688 20.703125 C 147.75 19.070312 151.65625 19.59375 155.273438 22.265625 C 161.859375 28.722656 168.304688 35.296875 174.609375 41.992188 C 176.992188 46.117188 176.863281 50.15625 174.21875 54.101562 C 172.3125 55.875 170.554688 57.765625 168.945312 59.765625 C 171.832031 65.039062 174.109375 70.570312 175.78125 76.367188 C 179.386719 76.539062 182.964844 76.992188 186.523438 77.734375 C 189.25 79.15625 191.136719 81.304688 192.1875 84.179688 C 192.816406 93.800781 192.945312 103.4375 192.578125 113.085938 C 192.28125 115.675781 191.304688 117.953125 189.648438 119.921875 C 194.992188 126.246094 198.378906 133.472656 199.804688 141.601562 Z M 199.804688 141.601562 "/>
</g>
</defs>
<g id="surface1">
<use xlink:href="#surface5" mask="url(#mask0)"/>
<path style=" stroke:none;fill-rule:evenodd;fill:rgb(21.176471%,36.470588%,48.627451%);fill-opacity:1;" d="M 133.007812 32.226562 C 138.933594 42.515625 142.96875 53.519531 145.117188 65.234375 C 145.105469 65.652344 144.976562 65.976562 144.726562 66.210938 C 128.242188 44.894531 106.757812 37.148438 80.273438 42.96875 C 76.191406 44.097656 72.285156 45.660156 68.554688 47.65625 C 67.167969 48.667969 66.648438 50.035156 66.992188 51.757812 C 65.230469 52.964844 63.535156 54.269531 61.914062 55.664062 C 60.628906 54.429688 59.195312 54.234375 57.617188 55.078125 C 41.773438 69.53125 35.199219 87.433594 37.890625 108.789062 C 42.152344 131.015625 54.71875 146.445312 75.585938 155.078125 C 90.421875 160.257812 105.136719 159.929688 119.726562 154.101562 C 120.683594 160.03125 122.894531 165.4375 126.367188 170.3125 C 122.226562 172.171875 117.992188 173.796875 113.671875 175.195312 C 113.171875 179.0625 112.910156 182.96875 112.890625 186.914062 C 112.304688 188.542969 111.199219 189.648438 109.570312 190.234375 C 100.585938 190.496094 91.601562 190.496094 82.617188 190.234375 C 80.988281 189.648438 79.882812 188.542969 79.296875 186.914062 C 79.167969 183.269531 79.035156 179.621094 78.90625 175.976562 C 78.761719 175.617188 78.566406 175.292969 78.320312 175 C 70.75 172.972656 63.589844 169.976562 56.835938 166.015625 C 55.613281 165.707031 54.441406 165.835938 53.320312 166.40625 C 50.964844 168.894531 48.492188 171.238281 45.898438 173.4375 C 44.414062 173.765625 42.984375 173.632812 41.601562 173.046875 C 35.285156 166.730469 28.972656 160.417969 22.65625 154.101562 C 21.800781 152.332031 21.929688 150.640625 23.046875 149.023438 C 25.261719 146.808594 27.472656 144.597656 29.6875 142.382812 C 30.046875 141.785156 30.242188 141.132812 30.273438 140.429688 C 26.417969 133.234375 23.359375 125.679688 21.09375 117.773438 C 20.636719 117.230469 20.050781 116.902344 19.335938 116.796875 C 15.691406 116.667969 12.042969 116.535156 8.398438 116.40625 C 7.421875 115.949219 6.707031 115.234375 6.25 114.257812 C 5.609375 104.90625 5.480469 95.53125 5.859375 86.132812 C 6.289062 84.789062 7.136719 83.8125 8.398438 83.203125 C 12.042969 83.074219 15.691406 82.941406 19.335938 82.8125 C 20.050781 82.707031 20.636719 82.378906 21.09375 81.835938 C 22.15625 77.84375 23.457031 73.9375 25 70.117188 C 26.714844 66.367188 28.472656 62.65625 30.273438 58.984375 C 30.222656 58.347656 30.027344 57.761719 29.6875 57.226562 C 26.925781 54.726562 24.449219 51.992188 22.265625 49.023438 C 22.003906 48.113281 22.003906 47.199219 22.265625 46.289062 C 28.699219 39.464844 35.273438 32.757812 41.992188 26.171875 C 43.292969 25.910156 44.597656 25.910156 45.898438 26.171875 C 48.492188 28.371094 50.964844 30.714844 53.320312 33.203125 C 54.441406 33.773438 55.613281 33.902344 56.835938 33.59375 C 63.613281 29.683594 70.773438 26.691406 78.320312 24.609375 C 78.566406 24.316406 78.761719 23.992188 78.90625 23.632812 C 79.035156 19.988281 79.167969 16.339844 79.296875 12.695312 C 79.882812 11.066406 80.988281 9.960938 82.617188 9.375 C 91.601562 9.113281 100.585938 9.113281 109.570312 9.375 C 111.199219 9.960938 112.304688 11.066406 112.890625 12.695312 C 113.019531 16.339844 113.152344 19.988281 113.28125 23.632812 C 113.425781 23.992188 113.621094 24.316406 113.867188 24.609375 C 120.511719 26.5 126.894531 29.039062 133.007812 32.226562 Z M 133.007812 32.226562 "/>
<path style=" stroke:none;fill-rule:evenodd;fill:rgb(16.470588%,29.803922%,39.607843%);fill-opacity:1;" d="M 144.726562 66.210938 C 144.976562 65.976562 145.105469 65.652344 145.117188 65.234375 C 142.96875 53.519531 138.933594 42.515625 133.007812 32.226562 C 134.574219 33.628906 136.398438 34.085938 138.476562 33.59375 C 140.820312 31.25 143.164062 28.90625 145.507812 26.5625 C 147.75 25.625 149.832031 25.886719 151.757812 27.34375 C 157.421875 33.007812 163.085938 38.671875 168.75 44.335938 C 170.214844 46.117188 170.472656 48.070312 169.53125 50.195312 C 167.1875 52.539062 164.84375 54.882812 162.5 57.226562 C 162.15625 57.761719 161.960938 58.347656 161.914062 58.984375 C 163.714844 62.65625 165.472656 66.367188 167.1875 70.117188 C 168.671875 73.527344 169.84375 77.042969 170.703125 80.664062 C 171.003906 81.617188 171.589844 82.332031 172.460938 82.8125 C 176.105469 82.941406 179.753906 83.074219 183.398438 83.203125 C 184.730469 83.625 185.707031 84.46875 186.328125 85.742188 C 186.589844 94.988281 186.589844 104.230469 186.328125 113.476562 C 186 114.390625 185.480469 115.171875 184.765625 115.820312 C 175.976562 109.058594 166.015625 106.0625 154.882812 106.835938 C 156.265625 92.054688 152.878906 78.511719 144.726562 66.210938 Z M 144.726562 66.210938 "/>
<path style=" stroke:none;fill-rule:evenodd;fill:rgb(98.823529%,74.901961%,39.215686%);fill-opacity:1;" d="M 117.382812 51.367188 C 117.210938 51.34375 117.082031 51.40625 116.992188 51.5625 C 133.234375 69.371094 139.613281 90.269531 136.132812 114.257812 C 125.15625 122.667969 119.296875 133.867188 118.554688 147.851562 C 116.261719 148.917969 113.917969 149.832031 111.523438 150.585938 C 110.746094 140.828125 110.484375 130.933594 110.742188 120.898438 C 125.039062 113.40625 131.613281 101.558594 130.46875 85.351562 C 128.507812 74.578125 122.84375 66.441406 113.476562 60.9375 C 109.339844 58.941406 106.410156 60.046875 104.6875 64.257812 C 104.558594 72.851562 104.425781 81.445312 104.296875 90.039062 C 102.722656 95.523438 99.144531 97.800781 93.554688 96.875 C 91.015625 95.898438 89.257812 94.140625 88.28125 91.601562 C 87.773438 82.511719 87.511719 73.398438 87.5 64.257812 C 86.410156 60.945312 84.128906 59.578125 80.664062 60.15625 C 70.816406 64.921875 64.632812 72.667969 62.109375 83.398438 C 59.996094 100.398438 66.441406 112.898438 81.445312 120.898438 C 81.574219 130.859375 81.445312 140.757812 81.054688 150.585938 C 61.566406 144.183594 49.261719 131.03125 44.140625 111.132812 C 40.484375 90.324219 46.476562 72.878906 62.109375 58.789062 C 62.390625 57.710938 62.328125 56.667969 61.914062 55.664062 C 63.535156 54.269531 65.230469 52.964844 66.992188 51.757812 C 67.765625 52.632812 68.742188 53.152344 69.921875 53.320312 C 81.988281 47 94.683594 45.242188 108.007812 48.046875 C 111.269531 48.894531 114.394531 50 117.382812 51.367188 Z M 117.382812 51.367188 "/>
<path style=" stroke:none;fill-rule:evenodd;fill:rgb(98.431373%,69.803922%,25.098039%);fill-opacity:1;" d="M 117.382812 51.367188 C 134.300781 59.113281 144.652344 72.132812 148.4375 90.429688 C 149.136719 96.410156 149.203125 102.398438 148.632812 108.398438 C 144.054688 109.515625 139.890625 111.46875 136.132812 114.257812 C 139.613281 90.269531 133.234375 69.371094 116.992188 51.5625 C 117.082031 51.40625 117.210938 51.34375 117.382812 51.367188 Z M 117.382812 51.367188 "/>
<path style=" stroke:none;fill-rule:evenodd;fill:rgb(92.54902%,95.294118%,98.823529%);fill-opacity:1;" d="M 110.351562 88.476562 C 110.675781 82.816406 110.871094 77.085938 110.9375 71.289062 C 118.859375 82.78125 118.992188 94.367188 111.328125 106.054688 C 107.484375 110.90625 102.664062 114.421875 96.875 116.601562 C 96.679688 128.710938 96.613281 140.820312 96.679688 152.929688 C 93.570312 153.039062 90.507812 152.777344 87.5 152.148438 C 87.371094 140.691406 87.238281 129.230469 87.109375 117.773438 C 86.964844 117.414062 86.769531 117.089844 86.523438 116.796875 C 72.882812 110.9375 66.566406 100.585938 67.578125 85.742188 C 69.242188 77.113281 73.867188 70.605469 81.445312 66.210938 C 81.769531 74.542969 81.964844 82.875 82.03125 91.210938 C 84.925781 100.5 91.113281 104.210938 100.585938 102.34375 C 106.65625 99.722656 109.910156 95.097656 110.351562 88.476562 Z M 110.351562 88.476562 "/>
<path style=" stroke:none;fill-rule:evenodd;fill:rgb(83.921569%,92.156863%,98.431373%);fill-opacity:1;" d="M 96.679688 152.929688 C 96.613281 140.820312 96.679688 128.710938 96.875 116.601562 C 102.664062 114.421875 107.484375 110.90625 111.328125 106.054688 C 118.992188 94.367188 118.859375 82.78125 110.9375 71.289062 C 110.871094 77.085938 110.675781 82.816406 110.351562 88.476562 C 110.222656 81.050781 110.351562 73.628906 110.742188 66.210938 C 121.40625 72.695312 126.027344 82.203125 124.609375 94.726562 C 122.226562 105.445312 115.910156 112.800781 105.664062 116.796875 C 105.417969 117.089844 105.222656 117.414062 105.078125 117.773438 C 104.882812 129.230469 104.816406 140.6875 104.882812 152.148438 C 102.15625 152.484375 99.421875 152.746094 96.679688 152.929688 Z M 96.679688 152.929688 "/>
<path style=" stroke:none;fill-rule:evenodd;fill:rgb(92.941176%,95.686275%,99.215686%);fill-opacity:1;" d="M 167.773438 113.867188 C 181.367188 122.960938 187.292969 135.722656 185.546875 152.148438 C 182.785156 166.230469 174.777344 175.933594 161.523438 181.25 C 159.445312 181.445312 157.359375 181.511719 155.273438 181.445312 C 145.53125 180.097656 137.652344 175.539062 131.640625 167.773438 C 122.6875 154.324219 122.558594 140.785156 131.25 127.148438 C 140.726562 115.144531 152.902344 110.71875 167.773438 113.867188 Z M 167.773438 113.867188 "/>
<path style=" stroke:none;fill-rule:evenodd;fill:rgb(83.921569%,92.156863%,98.823529%);fill-opacity:1;" d="M 167.773438 113.867188 C 176.644531 116.167969 183.609375 121.113281 188.671875 128.710938 C 196.753906 143.65625 195.453125 157.71875 184.765625 170.898438 C 184.496094 172.273438 184.691406 173.578125 185.351562 174.804688 C 183.636719 176.257812 181.8125 177.5625 179.882812 178.710938 C 179.070312 177.949219 178.09375 177.558594 176.953125 177.539062 C 173.804688 178.71875 170.613281 179.824219 167.382812 180.859375 C 163.3125 181.753906 159.277344 181.949219 155.273438 181.445312 C 157.359375 181.511719 159.445312 181.445312 161.523438 181.25 C 174.777344 175.933594 182.785156 166.230469 185.546875 152.148438 C 187.292969 135.722656 181.367188 122.960938 167.773438 113.867188 Z M 167.773438 113.867188 "/>
<path style=" stroke:none;fill-rule:evenodd;fill:rgb(33.72549%,25.490196%,12.941176%);fill-opacity:1;" d="M 81.445312 120.898438 C 81.964844 130.859375 81.964844 140.886719 81.445312 150.976562 C 81.207031 150.929688 81.078125 150.796875 81.054688 150.585938 C 81.445312 140.757812 81.574219 130.859375 81.445312 120.898438 Z M 81.445312 120.898438 "/>
<path style=" stroke:none;fill-rule:evenodd;fill:rgb(21.960784%,16.470588%,8.627451%);fill-opacity:1;" d="M 110.742188 120.898438 C 110.484375 130.933594 110.746094 140.828125 111.523438 150.585938 C 111.246094 150.9375 110.855469 151.070312 110.351562 150.976562 C 110.222656 140.882812 110.351562 130.855469 110.742188 120.898438 Z M 110.742188 120.898438 "/>
<path style=" stroke:none;fill-rule:evenodd;fill:rgb(1.176471%,1.960784%,1.568627%);fill-opacity:1;" d="M 169.726562 127.148438 C 175.898438 126.109375 180.128906 128.453125 182.421875 134.179688 C 182.84375 136.738281 182.582031 139.214844 181.640625 141.601562 C 175.335938 149.457031 168.890625 157.203125 162.304688 164.84375 C 158.125 167.6875 153.960938 167.6875 149.804688 164.84375 C 146.222656 161.785156 142.644531 158.722656 139.0625 155.664062 C 134.539062 148.136719 136.296875 142.605469 144.335938 139.0625 C 148.132812 138.460938 151.386719 139.503906 154.101562 142.1875 C 154.492188 142.449219 154.882812 142.449219 155.273438 142.1875 C 158.902344 137.644531 162.679688 133.21875 166.601562 128.90625 C 167.730469 128.410156 168.773438 127.824219 169.726562 127.148438 Z M 169.726562 127.148438 "/>
<path style=" stroke:none;fill-rule:evenodd;fill:rgb(22.352941%,75.294118%,63.137255%);fill-opacity:1;" d="M 174.414062 133.398438 C 174.285156 134.496094 173.960938 135.539062 173.4375 136.523438 C 167.523438 143.859375 161.46875 151.085938 155.273438 158.203125 C 154.515625 158.945312 153.605469 159.273438 152.539062 159.179688 C 149.183594 156.671875 145.992188 153.9375 142.96875 150.976562 C 141.855469 146.765625 143.480469 144.746094 147.851562 144.921875 C 150.074219 146.292969 152.15625 147.855469 154.101562 149.609375 C 156.046875 149.90625 157.546875 149.191406 158.59375 147.460938 C 162.433594 142.839844 166.277344 138.214844 170.117188 133.59375 C 171.574219 132.929688 173.007812 132.863281 174.414062 133.398438 Z M 174.414062 133.398438 "/>
<path style=" stroke:none;fill-rule:evenodd;fill:rgb(0%,64.705882%,51.764706%);fill-opacity:1;" d="M 174.414062 133.398438 C 175.425781 133.691406 176.140625 134.34375 176.5625 135.351562 C 176.882812 136.703125 176.75 138.007812 176.171875 139.257812 C 170.574219 146.027344 164.972656 152.800781 159.375 159.570312 C 156.90625 161.773438 154.625 161.640625 152.539062 159.179688 C 153.605469 159.273438 154.515625 158.945312 155.273438 158.203125 C 161.46875 151.085938 167.523438 143.859375 173.4375 136.523438 C 173.960938 135.539062 174.285156 134.496094 174.414062 133.398438 Z M 174.414062 133.398438 "/>
</g>
</svg>
