<?xml version="1.0" encoding="UTF-8"?>
<!DOCTYPE svg PUBLIC "-//W3C//DTD SVG 1.1//EN" "http://www.w3.org/Graphics/SVG/1.1/DTD/svg11.dtd">
<svg xmlns="http://www.w3.org/2000/svg" version="1.1" width="640px" height="640px" style="shape-rendering:geometricPrecision; text-rendering:geometricPrecision; image-rendering:optimizeQuality; fill-rule:evenodd; clip-rule:evenodd" xmlns:xlink="http://www.w3.org/1999/xlink">
<g><path style="opacity:1" fill="#010101" d="M -0.5,-0.5 C 43.5,-0.5 87.5,-0.5 131.5,-0.5C 131.167,2.5 132.5,3.83333 135.5,3.5C 137.368,9.85449 141.201,14.8545 147,18.5C 147.953,20.4552 149.287,22.1218 151,23.5C 151.483,24.448 151.649,25.448 151.5,26.5C 154.833,26.5 156.5,28.1667 156.5,31.5C 157.873,31.3433 159.207,31.51 160.5,32C 162.549,34.5934 164.715,37.0934 167,39.5C 167.497,42.146 167.664,44.8127 167.5,47.5C 169.167,47.5 170.833,47.5 172.5,47.5C 173.5,50.1667 174.5,52.8333 175.5,55.5C 176.552,55.3505 177.552,55.5172 178.5,56C 179.333,58.1667 180.833,59.6667 183,60.5C 183.483,61.448 183.649,62.448 183.5,63.5C 184.833,63.5 186.167,63.5 187.5,63.5C 187.167,66.5 188.5,67.8333 191.5,67.5C 191.343,68.8734 191.51,70.2068 192,71.5C 196.767,76.4256 200.934,81.759 204.5,87.5C 205.978,76.8927 207.144,76.8927 208,87.5C 210.285,89.9066 212.451,92.4066 214.5,95C 213.552,95.4828 212.552,95.6495 211.5,95.5C 211.167,98.5 212.5,99.8333 215.5,99.5C 216.695,103.897 219.028,107.73 222.5,111C 224.134,111.494 225.801,111.66 227.5,111.5C 227.167,114.5 228.5,115.833 231.5,115.5C 231.343,116.873 231.51,118.207 232,119.5C 239.667,127.5 247.333,135.5 255,143.5C 255.497,146.146 255.664,148.813 255.5,151.5C 256.833,151.5 258.167,151.5 259.5,151.5C 259.529,154.656 261.196,156.322 264.5,156.5C 266.003,158.586 267.336,160.752 268.5,163C 269.872,163.402 271.205,163.902 272.5,164.5C 273.731,165.651 273.731,166.817 272.5,168C 275.675,172.341 279.342,176.174 283.5,179.5C 281.291,180.063 279.791,181.396 279,183.5C 277.195,180.961 274.695,179.961 271.5,180.5C 271.5,182.167 271.5,183.833 271.5,185.5C 274.346,185.03 276.679,185.863 278.5,188C 275.098,193.9 270.098,197.734 263.5,199.5C 262.185,202.373 261.185,205.373 260.5,208.5C 259.575,209.641 258.741,209.641 258,208.5C 257.383,209.449 257.549,210.282 258.5,211C 257.376,211.249 256.376,211.749 255.5,212.5C 255.838,214.655 255.838,216.989 255.5,219.5C 254.325,219.281 253.325,219.614 252.5,220.5C 252.278,223.713 250.612,225.546 247.5,226C 249.107,227.049 249.773,228.549 249.5,230.5C 247.156,238.207 244.656,245.874 242,253.5C 241.037,259.465 240.537,265.465 240.5,271.5C 201.735,258.065 168.902,266.732 142,297.5C 123.165,323.853 118.832,352.52 129,383.5C 131.673,389.52 134.84,395.187 138.5,400.5C 144.833,411.5 153.5,420.167 164.5,426.5C 172.691,432.094 181.691,435.76 191.5,437.5C 193.302,438.458 195.302,439.125 197.5,439.5C 197.918,440.222 198.584,440.722 199.5,441C 207.493,441.5 215.493,441.666 223.5,441.5C 261.905,442.369 300.405,443.369 339,444.5C 378.816,443.189 418.649,442.689 458.5,443C 457.672,442.085 456.672,441.419 455.5,441C 464.12,441.928 471.787,439.761 478.5,434.5C 479.452,432.955 479.785,431.288 479.5,429.5C 481.821,429.229 483.821,429.896 485.5,431.5C 485.911,430.738 486.077,429.738 486,428.5C 487.011,429.337 488.178,429.67 489.5,429.5C 492.169,431.087 495.169,431.921 498.5,432C 499.333,434.167 500.833,435.667 503,436.5C 503.483,437.448 503.649,438.448 503.5,439.5C 504.833,439.5 506.167,439.5 507.5,439.5C 507.5,442.167 507.5,444.833 507.5,447.5C 508.833,447.5 510.167,447.5 511.5,447.5C 511.5,448.833 511.5,450.167 511.5,451.5C 514.167,451.5 516.833,451.5 519.5,451.5C 520.69,455.575 522.19,459.575 524,463.5C 525,462.167 526,460.833 527,459.5C 527.497,461.81 527.663,464.143 527.5,466.5C 530.833,466.5 532.5,468.167 532.5,471.5C 534.167,471.5 535.833,471.5 537.5,471.5C 537.5,474.167 537.5,476.833 537.5,479.5C 539.5,479.5 541.5,479.5 543.5,479.5C 543.5,482.167 543.5,484.833 543.5,487.5C 544.833,487.5 546.167,487.5 547.5,487.5C 547.351,488.552 547.517,489.552 548,490.5C 550.069,491.264 552.236,491.764 554.5,492C 555.337,493.011 555.67,494.178 555.5,495.5C 554.448,495.351 553.448,495.517 552.5,496C 559.833,503.667 567.167,511.333 574.5,519C 576.134,519.494 577.801,519.66 579.5,519.5C 578.812,524.414 579.979,528.747 583,532.5C 583.333,531.167 583.667,529.833 584,528.5C 584.914,530.664 586.081,532.664 587.5,534.5C 588.919,532.664 590.086,530.664 591,528.5C 591.497,530.81 591.663,533.143 591.5,535.5C 587.5,536.167 587.5,536.833 591.5,537.5C 591.751,542.959 594.084,547.459 598.5,551C 599.766,551.309 600.933,551.809 602,552.5C 602.333,554.833 602.667,557.167 603,559.5C 605.663,554.886 607.33,554.886 608,559.5C 613,564.833 618,570.167 623,575.5C 623.49,576.793 623.657,578.127 623.5,579.5C 624.552,579.351 625.552,579.517 626.5,580C 627.264,582.069 627.764,584.236 628,586.5C 629.011,587.337 630.178,587.67 631.5,587.5C 631.5,588.833 631.5,590.167 631.5,591.5C 633.5,591.5 635.5,591.5 637.5,591.5C 636.964,594.698 637.631,597.365 639.5,599.5C 639.5,612.833 639.5,626.167 639.5,639.5C 426.167,639.5 212.833,639.5 -0.5,639.5C -0.5,426.167 -0.5,212.833 -0.5,-0.5 Z"/></g>
<g><path style="opacity:1" fill="#090909" d="M 131.5,-0.5 C 168.833,-0.5 206.167,-0.5 243.5,-0.5C 243.5,2.16667 243.5,4.83333 243.5,7.5C 244.833,7.5 246.167,7.5 247.5,7.5C 247.5,8.83333 247.5,10.1667 247.5,11.5C 248.552,11.3505 249.552,11.5172 250.5,12C 251.264,14.0693 251.764,16.236 252,18.5C 253.011,19.3366 254.178,19.67 255.5,19.5C 255.5,20.8333 255.5,22.1667 255.5,23.5C 256.552,23.3505 257.552,23.5172 258.5,24C 262.017,27.8148 265.184,31.9815 268,36.5C 272.167,39.3333 275.667,42.8333 278.5,47C 273.98,48.0685 274.147,49.9018 279,52.5C 282.305,49.9009 284.138,50.9009 284.5,55.5C 285.5,55.5 286.5,55.5 287.5,55.5C 287.5,56.5 287.5,57.5 287.5,58.5C 290.833,58.5 292.5,60.1667 292.5,63.5C 293.5,63.5 294.5,63.5 295.5,63.5C 295.5,64.8333 295.5,66.1667 295.5,67.5C 296.552,67.3505 297.552,67.5172 298.5,68C 299.264,70.0693 299.764,72.236 300,74.5C 304.207,75.8742 307.04,78.7075 308.5,83C 309.448,83.4828 310.448,83.6495 311.5,83.5C 311.336,86.1873 311.503,88.854 312,91.5C 313,90.1667 314,88.8333 315,87.5C 316.707,89.9088 317.54,92.5755 317.5,95.5C 318.552,95.3505 319.552,95.5172 320.5,96C 327.885,103.929 335.385,111.763 343,119.5C 343.49,120.793 343.657,122.127 343.5,123.5C 344.822,123.33 345.989,123.663 347,124.5C 348.333,127.833 349.667,131.167 351,134.5C 352.067,135.191 353.234,135.691 354.5,136C 358.017,139.815 361.184,143.981 364,148.5C 369,153.167 374,157.833 379,162.5C 379.953,164.455 381.287,166.122 383,167.5C 383.495,169.473 383.662,171.473 383.5,173.5C 385.798,174.31 388.132,175.144 390.5,176C 388.122,176.974 388.456,177.641 391.5,178C 389.618,178.152 387.951,178.985 386.5,180.5C 354.095,168.46 322.429,170.294 291.5,186C 273.831,197.499 259.831,212.332 249.5,230.5C 249.773,228.549 249.107,227.049 247.5,226C 250.612,225.546 252.278,223.713 252.5,220.5C 253.325,219.614 254.325,219.281 255.5,219.5C 255.838,216.989 255.838,214.655 255.5,212.5C 256.376,211.749 257.376,211.249 258.5,211C 257.549,210.282 257.383,209.449 258,208.5C 258.741,209.641 259.575,209.641 260.5,208.5C 261.185,205.373 262.185,202.373 263.5,199.5C 270.098,197.734 275.098,193.9 278.5,188C 276.679,185.863 274.346,185.03 271.5,185.5C 271.5,183.833 271.5,182.167 271.5,180.5C 274.695,179.961 277.195,180.961 279,183.5C 279.791,181.396 281.291,180.063 283.5,179.5C 279.342,176.174 275.675,172.341 272.5,168C 273.731,166.817 273.731,165.651 272.5,164.5C 271.205,163.902 269.872,163.402 268.5,163C 267.336,160.752 266.003,158.586 264.5,156.5C 261.196,156.322 259.529,154.656 259.5,151.5C 258.167,151.5 256.833,151.5 255.5,151.5C 255.664,148.813 255.497,146.146 255,143.5C 247.333,135.5 239.667,127.5 232,119.5C 231.51,118.207 231.343,116.873 231.5,115.5C 228.5,115.833 227.167,114.5 227.5,111.5C 225.801,111.66 224.134,111.494 222.5,111C 219.028,107.73 216.695,103.897 215.5,99.5C 212.5,99.8333 211.167,98.5 211.5,95.5C 212.552,95.6495 213.552,95.4828 214.5,95C 212.451,92.4066 210.285,89.9066 208,87.5C 207.144,76.8927 205.978,76.8927 204.5,87.5C 200.934,81.759 196.767,76.4256 192,71.5C 191.51,70.2068 191.343,68.8734 191.5,67.5C 188.5,67.8333 187.167,66.5 187.5,63.5C 186.167,63.5 184.833,63.5 183.5,63.5C 183.649,62.448 183.483,61.448 183,60.5C 180.833,59.6667 179.333,58.1667 178.5,56C 177.552,55.5172 176.552,55.3505 175.5,55.5C 174.5,52.8333 173.5,50.1667 172.5,47.5C 170.833,47.5 169.167,47.5 167.5,47.5C 167.664,44.8127 167.497,42.146 167,39.5C 164.715,37.0934 162.549,34.5934 160.5,32C 159.207,31.51 157.873,31.3433 156.5,31.5C 156.5,28.1667 154.833,26.5 151.5,26.5C 151.649,25.448 151.483,24.448 151,23.5C 149.287,22.1218 147.953,20.4552 147,18.5C 141.201,14.8545 137.368,9.85449 135.5,3.5C 132.5,3.83333 131.167,2.5 131.5,-0.5 Z"/></g>
<g><path style="opacity:1" fill="#0f0f0f" d="M 243.5,-0.5 C 274.5,-0.5 305.5,-0.5 336.5,-0.5C 338.419,2.31938 340.585,4.98605 343,7.5C 343.483,8.44802 343.649,9.44802 343.5,10.5C 346.833,10.5 348.5,12.1667 348.5,15.5C 349.5,15.5 350.5,15.5 351.5,15.5C 351.5,16.5 351.5,17.5 351.5,18.5C 353.39,18.2965 354.89,18.9632 356,20.5C 356.115,24.618 357.282,28.2846 359.5,31.5C 360.833,31.5 362.167,31.5 363.5,31.5C 363.167,34.5 364.5,35.8333 367.5,35.5C 367.5,36.8333 367.5,38.1667 367.5,39.5C 368.552,39.3505 369.552,39.5172 370.5,40C 371.333,42.1667 372.833,43.6667 375,44.5C 375.483,45.448 375.649,46.448 375.5,47.5C 376.552,47.3505 377.552,47.5172 378.5,48C 382.199,53.3846 386.366,58.5513 391,63.5C 391.674,66.26 392.507,68.9267 393.5,71.5C 395.5,71.5 397.5,71.5 399.5,71.5C 399.5,74.1667 399.5,76.8333 399.5,79.5C 402.167,79.5 404.833,79.5 407.5,79.5C 407.5,82.1667 407.5,84.8333 407.5,87.5C 410.167,87.5 412.833,87.5 415.5,87.5C 415.5,90.1667 415.5,92.8333 415.5,95.5C 416.552,95.3505 417.552,95.5172 418.5,96C 419.333,98.1667 420.833,99.6667 423,100.5C 423.483,101.448 423.649,102.448 423.5,103.5C 424.552,103.351 425.552,103.517 426.5,104C 431.232,110.739 436.732,116.905 443,122.5C 443.785,124.286 444.951,125.786 446.5,127C 445.552,127.483 444.552,127.649 443.5,127.5C 443.529,130.656 445.196,132.322 448.5,132.5C 449.386,133.325 449.719,134.325 449.5,135.5C 451.5,135.5 453.5,135.5 455.5,135.5C 455.5,138.167 455.5,140.833 455.5,143.5C 456.552,143.351 457.552,143.517 458.5,144C 459.333,146.167 460.833,147.667 463,148.5C 463.483,149.448 463.649,150.448 463.5,151.5C 464.5,151.5 465.5,151.5 466.5,151.5C 466.5,154.833 468.167,156.5 471.5,156.5C 471.343,157.873 471.51,159.207 472,160.5C 474.064,159.409 476.231,159.242 478.5,160C 476.5,162.333 474.5,164.667 472.5,167C 474.769,167.758 476.936,167.591 479,166.5C 481.853,169.052 484.353,171.885 486.5,175C 487.448,175.483 488.448,175.649 489.5,175.5C 489.46,178.425 490.293,181.091 492,183.5C 493,182.167 494,180.833 495,179.5C 495.196,186.464 497.863,192.131 503,196.5C 503.483,197.448 503.649,198.448 503.5,199.5C 504.833,199.5 506.167,199.5 507.5,199.5C 507.167,202.5 508.5,203.833 511.5,203.5C 511.343,204.873 511.51,206.207 512,207.5C 519.667,215.5 527.333,223.5 535,231.5C 535.981,235.473 537.648,239.14 540,242.5C 541.011,243.337 542.178,243.67 543.5,243.5C 543.343,242.127 543.51,240.793 544,239.5C 546.333,242.167 548.667,244.833 551,247.5C 551.497,250.146 551.664,252.813 551.5,255.5C 552.552,255.351 553.552,255.517 554.5,256C 555.333,258.167 556.833,259.667 559,260.5C 559.483,261.448 559.649,262.448 559.5,263.5C 560.552,263.351 561.552,263.517 562.5,264C 566.199,269.385 570.366,274.551 575,279.5C 576.136,282.096 576.969,284.763 577.5,287.5C 579.5,287.5 581.5,287.5 583.5,287.5C 583.5,288.833 583.5,290.167 583.5,291.5C 586.5,291.167 587.833,292.5 587.5,295.5C 588.833,295.5 590.167,295.5 591.5,295.5C 591.5,298.167 591.5,300.833 591.5,303.5C 592.833,303.5 594.167,303.5 595.5,303.5C 595.167,306.5 596.5,307.833 599.5,307.5C 599.5,308.833 599.5,310.167 599.5,311.5C 600.833,311.5 602.167,311.5 603.5,311.5C 603.167,314.5 604.5,315.833 607.5,315.5C 607.34,317.199 607.506,318.866 608,320.5C 610.064,319.409 612.231,319.242 614.5,320C 612.5,322.333 610.5,324.667 608.5,327C 610.769,327.758 612.936,327.591 615,326.5C 620.137,332.391 625.47,338.057 631,343.5C 631.49,344.793 631.657,346.127 631.5,347.5C 632.552,347.351 633.552,347.517 634.5,348C 635.264,350.069 635.764,352.236 636,354.5C 637.011,355.337 638.178,355.67 639.5,355.5C 639.5,393.167 639.5,430.833 639.5,468.5C 637.057,467.891 635.39,466.391 634.5,464C 633.552,463.517 632.552,463.351 631.5,463.5C 631.5,462.167 631.5,460.833 631.5,459.5C 628.5,459.833 627.167,458.5 627.5,455.5C 626.167,455.5 624.833,455.5 623.5,455.5C 623.5,452.833 623.5,450.167 623.5,447.5C 622.167,447.5 620.833,447.5 619.5,447.5C 619.833,444.5 618.5,443.167 615.5,443.5C 615.5,442.167 615.5,440.833 615.5,439.5C 614.167,439.5 612.833,439.5 611.5,439.5C 611.833,436.5 610.5,435.167 607.5,435.5C 607.657,434.127 607.49,432.793 607,431.5C 605.287,430.122 603.953,428.455 603,426.5C 598,421.833 593,417.167 588,412.5C 585.194,407.691 581.86,403.357 578,399.5C 577.503,396.854 577.336,394.187 577.5,391.5C 574.833,391.5 572.167,391.5 569.5,391.5C 568.606,386.523 566.44,382.19 563,378.5C 556.833,372.333 550.667,366.167 544.5,360C 543.552,359.517 542.552,359.351 541.5,359.5C 541.5,356.833 541.5,354.167 541.5,351.5C 539.5,351.5 537.5,351.5 535.5,351.5C 535.5,350.167 535.5,348.833 535.5,347.5C 534.448,347.649 533.448,347.483 532.5,347C 531.736,344.931 531.236,342.764 531,340.5C 529.989,339.663 528.822,339.33 527.5,339.5C 526.134,334.931 523.634,330.931 520,327.5C 519.643,331.51 519.81,335.51 520.5,339.5C 519.5,339.5 518.5,339.5 517.5,339.5C 517.714,341.144 517.38,342.644 516.5,344C 517.868,354.44 519.201,364.94 520.5,375.5C 520.167,378.167 519.833,380.833 519.5,383.5C 518.833,382.167 518.167,380.833 517.5,379.5C 517.167,379.667 516.833,379.833 516.5,380C 516.036,382.405 515.869,384.905 516,387.5C 515.411,389.863 513.911,390.863 511.5,390.5C 512.975,385.6 513.975,380.6 514.5,375.5C 515.473,373.052 515.806,370.385 515.5,367.5C 516.805,365.603 517.471,363.269 517.5,360.5C 516.163,352.47 514.663,344.47 513,336.5C 512.148,332.736 510.648,329.403 508.5,326.5C 503.361,313.693 494.694,304.026 482.5,297.5C 477.693,294.1 472.36,291.766 466.5,290.5C 465.081,289.549 463.415,289.216 461.5,289.5C 459.444,288.784 457.277,288.117 455,287.5C 454.023,282.207 453.523,276.874 453.5,271.5C 453.645,261.414 451.312,252.081 446.5,243.5C 445.975,239.467 444.642,235.8 442.5,232.5C 439.908,226.976 436.575,221.976 432.5,217.5C 425.02,206.521 415.687,197.354 404.5,190C 398.249,187.044 392.249,183.878 386.5,180.5C 387.951,178.985 389.618,178.152 391.5,178C 388.456,177.641 388.122,176.974 390.5,176C 388.132,175.144 385.798,174.31 383.5,173.5C 383.662,171.473 383.495,169.473 383,167.5C 381.287,166.122 379.953,164.455 379,162.5C 374,157.833 369,153.167 364,148.5C 361.184,143.981 358.017,139.815 354.5,136C 353.234,135.691 352.067,135.191 351,134.5C 349.667,131.167 348.333,127.833 347,124.5C 345.989,123.663 344.822,123.33 343.5,123.5C 343.657,122.127 343.49,120.793 343,119.5C 335.385,111.763 327.885,103.929 320.5,96C 319.552,95.5172 318.552,95.3505 317.5,95.5C 317.54,92.5755 316.707,89.9088 315,87.5C 314,88.8333 313,90.1667 312,91.5C 311.503,88.854 311.336,86.1873 311.5,83.5C 310.448,83.6495 309.448,83.4828 308.5,83C 307.04,78.7075 304.207,75.8742 300,74.5C 299.764,72.236 299.264,70.0693 298.5,68C 297.552,67.5172 296.552,67.3505 295.5,67.5C 295.5,66.1667 295.5,64.8333 295.5,63.5C 294.5,63.5 293.5,63.5 292.5,63.5C 292.5,60.1667 290.833,58.5 287.5,58.5C 287.5,57.5 287.5,56.5 287.5,55.5C 286.5,55.5 285.5,55.5 284.5,55.5C 284.138,50.9009 282.305,49.9009 279,52.5C 274.147,49.9018 273.98,48.0685 278.5,47C 275.667,42.8333 272.167,39.3333 268,36.5C 265.184,31.9815 262.017,27.8148 258.5,24C 257.552,23.5172 256.552,23.3505 255.5,23.5C 255.5,22.1667 255.5,20.8333 255.5,19.5C 254.178,19.67 253.011,19.3366 252,18.5C 251.764,16.236 251.264,14.0693 250.5,12C 249.552,11.5172 248.552,11.3505 247.5,11.5C 247.5,10.1667 247.5,8.83333 247.5,7.5C 246.167,7.5 244.833,7.5 243.5,7.5C 243.5,4.83333 243.5,2.16667 243.5,-0.5 Z"/></g>
<g><path style="opacity:1" fill="#151515" d="M 336.5,-0.5 C 371.5,-0.5 406.5,-0.5 441.5,-0.5C 441.523,4.24342 443.523,7.57675 447.5,9.5C 448.718,12.5876 450.218,15.5876 452,18.5C 456.207,19.8742 459.04,22.7075 460.5,27C 461.448,27.4828 462.448,27.6495 463.5,27.5C 463.343,28.8734 463.51,30.2068 464,31.5C 469,36.8333 474,42.1667 479,47.5C 479.49,48.7932 479.657,50.1266 479.5,51.5C 482.167,51.5 484.833,51.5 487.5,51.5C 487.5,52.8333 487.5,54.1667 487.5,55.5C 488.833,55.5 490.167,55.5 491.5,55.5C 491.5,58.1667 491.5,60.8333 491.5,63.5C 494.652,62.9586 497.152,63.9586 499,66.5C 499.953,68.4552 501.287,70.1218 503,71.5C 503.333,74.1667 503.667,76.8333 504,79.5C 506.285,81.9066 508.451,84.4066 510.5,87C 511.833,87.3333 513.167,87.6667 514.5,88C 515.333,90.1667 516.833,91.6667 519,92.5C 519.772,96.8344 522.272,99.8344 526.5,101.5C 527.452,103.045 527.785,104.712 527.5,106.5C 530.833,106.5 532.5,108.167 532.5,111.5C 533.5,111.5 534.5,111.5 535.5,111.5C 535.5,112.833 535.5,114.167 535.5,115.5C 537.5,115.5 539.5,115.5 541.5,115.5C 541.5,116.833 541.5,118.167 541.5,119.5C 540.448,119.351 539.448,119.517 538.5,120C 539.333,122.167 540.833,123.667 543,124.5C 543.483,125.448 543.649,126.448 543.5,127.5C 544.833,127.5 546.167,127.5 547.5,127.5C 547.167,130.5 548.5,131.833 551.5,131.5C 551.343,132.873 551.51,134.207 552,135.5C 553.713,136.878 555.047,138.545 556,140.5C 557.264,142.607 559.097,143.607 561.5,143.5C 562.833,146.167 564.167,148.833 565.5,151.5C 566.552,151.351 567.552,151.517 568.5,152C 570.5,154.333 572.5,156.667 574.5,159C 576.134,159.494 577.801,159.66 579.5,159.5C 579.5,162.167 579.5,164.833 579.5,167.5C 580.833,167.5 582.167,167.5 583.5,167.5C 583.5,168.833 583.5,170.167 583.5,171.5C 584.552,171.351 585.552,171.517 586.5,172C 587.264,174.069 587.764,176.236 588,178.5C 589.011,179.337 590.178,179.67 591.5,179.5C 591.5,180.833 591.5,182.167 591.5,183.5C 592.833,183.5 594.167,183.5 595.5,183.5C 595.167,186.5 596.5,187.833 599.5,187.5C 599.5,188.833 599.5,190.167 599.5,191.5C 600.5,191.5 601.5,191.5 602.5,191.5C 602.5,194.833 604.167,196.5 607.5,196.5C 607.5,198.833 607.5,201.167 607.5,203.5C 610.167,203.5 612.833,203.5 615.5,203.5C 615.5,205.833 615.5,208.167 615.5,210.5C 618.833,210.5 620.5,212.167 620.5,215.5C 621.5,215.5 622.5,215.5 623.5,215.5C 624.049,220.999 626.549,225.332 631,228.5C 631.483,229.448 631.649,230.448 631.5,231.5C 634.167,231.5 636.833,231.5 639.5,231.5C 639.5,272.833 639.5,314.167 639.5,355.5C 638.178,355.67 637.011,355.337 636,354.5C 635.764,352.236 635.264,350.069 634.5,348C 633.552,347.517 632.552,347.351 631.5,347.5C 631.657,346.127 631.49,344.793 631,343.5C 625.47,338.057 620.137,332.391 615,326.5C 612.936,327.591 610.769,327.758 608.5,327C 610.5,324.667 612.5,322.333 614.5,320C 612.231,319.242 610.064,319.409 608,320.5C 607.506,318.866 607.34,317.199 607.5,315.5C 604.5,315.833 603.167,314.5 603.5,311.5C 602.167,311.5 600.833,311.5 599.5,311.5C 599.5,310.167 599.5,308.833 599.5,307.5C 596.5,307.833 595.167,306.5 595.5,303.5C 594.167,303.5 592.833,303.5 591.5,303.5C 591.5,300.833 591.5,298.167 591.5,295.5C 590.167,295.5 588.833,295.5 587.5,295.5C 587.833,292.5 586.5,291.167 583.5,291.5C 583.5,290.167 583.5,288.833 583.5,287.5C 581.5,287.5 579.5,287.5 577.5,287.5C 576.969,284.763 576.136,282.096 575,279.5C 570.366,274.551 566.199,269.385 562.5,264C 561.552,263.517 560.552,263.351 559.5,263.5C 559.649,262.448 559.483,261.448 559,260.5C 556.833,259.667 555.333,258.167 554.5,256C 553.552,255.517 552.552,255.351 551.5,255.5C 551.664,252.813 551.497,250.146 551,247.5C 548.667,244.833 546.333,242.167 544,239.5C 543.51,240.793 543.343,242.127 543.5,243.5C 542.178,243.67 541.011,243.337 540,242.5C 537.648,239.14 535.981,235.473 535,231.5C 527.333,223.5 519.667,215.5 512,207.5C 511.51,206.207 511.343,204.873 511.5,203.5C 508.5,203.833 507.167,202.5 507.5,199.5C 506.167,199.5 504.833,199.5 503.5,199.5C 503.649,198.448 503.483,197.448 503,196.5C 497.863,192.131 495.196,186.464 495,179.5C 494,180.833 493,182.167 492,183.5C 490.293,181.091 489.46,178.425 489.5,175.5C 488.448,175.649 487.448,175.483 486.5,175C 484.353,171.885 481.853,169.052 479,166.5C 476.936,167.591 474.769,167.758 472.5,167C 474.5,164.667 476.5,162.333 478.5,160C 476.231,159.242 474.064,159.409 472,160.5C 471.51,159.207 471.343,157.873 471.5,156.5C 468.167,156.5 466.5,154.833 466.5,151.5C 465.5,151.5 464.5,151.5 463.5,151.5C 463.649,150.448 463.483,149.448 463,148.5C 460.833,147.667 459.333,146.167 458.5,144C 457.552,143.517 456.552,143.351 455.5,143.5C 455.5,140.833 455.5,138.167 455.5,135.5C 453.5,135.5 451.5,135.5 449.5,135.5C 449.719,134.325 449.386,133.325 448.5,132.5C 445.196,132.322 443.529,130.656 443.5,127.5C 444.552,127.649 445.552,127.483 446.5,127C 444.951,125.786 443.785,124.286 443,122.5C 436.732,116.905 431.232,110.739 426.5,104C 425.552,103.517 424.552,103.351 423.5,103.5C 423.649,102.448 423.483,101.448 423,100.5C 420.833,99.6667 419.333,98.1667 418.5,96C 417.552,95.5172 416.552,95.3505 415.5,95.5C 415.5,92.8333 415.5,90.1667 415.5,87.5C 412.833,87.5 410.167,87.5 407.5,87.5C 407.5,84.8333 407.5,82.1667 407.5,79.5C 404.833,79.5 402.167,79.5 399.5,79.5C 399.5,76.8333 399.5,74.1667 399.5,71.5C 397.5,71.5 395.5,71.5 393.5,71.5C 392.507,68.9267 391.674,66.26 391,63.5C 386.366,58.5513 382.199,53.3846 378.5,48C 377.552,47.5172 376.552,47.3505 375.5,47.5C 375.649,46.448 375.483,45.448 375,44.5C 372.833,43.6667 371.333,42.1667 370.5,40C 369.552,39.5172 368.552,39.3505 367.5,39.5C 367.5,38.1667 367.5,36.8333 367.5,35.5C 364.5,35.8333 363.167,34.5 363.5,31.5C 362.167,31.5 360.833,31.5 359.5,31.5C 357.282,28.2846 356.115,24.618 356,20.5C 354.89,18.9632 353.39,18.2965 351.5,18.5C 351.5,17.5 351.5,16.5 351.5,15.5C 350.5,15.5 349.5,15.5 348.5,15.5C 348.5,12.1667 346.833,10.5 343.5,10.5C 343.649,9.44802 343.483,8.44802 343,7.5C 340.585,4.98605 338.419,2.31938 336.5,-0.5 Z"/></g>
<g><path style="opacity:1" fill="#1b1b1b" d="M 441.5,-0.5 C 487.5,-0.5 533.5,-0.5 579.5,-0.5C 579.167,2.5 580.5,3.83333 583.5,3.5C 583.5,4.83333 583.5,6.16667 583.5,7.5C 584.833,7.5 586.167,7.5 587.5,7.5C 587.167,10.5 588.5,11.8333 591.5,11.5C 591.5,12.8333 591.5,14.1667 591.5,15.5C 592.833,15.5 594.167,15.5 595.5,15.5C 595.167,18.5 596.5,19.8333 599.5,19.5C 599.5,22.1667 599.5,24.8333 599.5,27.5C 602.5,27.1667 603.833,28.5 603.5,31.5C 604.833,31.5 606.167,31.5 607.5,31.5C 607.5,32.8333 607.5,34.1667 607.5,35.5C 608.822,35.33 609.989,35.6634 611,36.5C 611.236,38.764 611.736,40.9307 612.5,43C 616.152,43.4986 619.818,43.6653 623.5,43.5C 623.5,44.8333 623.5,46.1667 623.5,47.5C 622.167,47.5 620.833,47.5 619.5,47.5C 619.167,50.5 620.5,51.8333 623.5,51.5C 623.5,53.5 623.5,55.5 623.5,57.5C 626.167,57.5 628.833,57.5 631.5,57.5C 631.5,59.5 631.5,61.5 631.5,63.5C 640.673,63.3888 640.673,64.2222 631.5,66C 634.063,67.0793 636.729,67.5793 639.5,67.5C 639.5,122.167 639.5,176.833 639.5,231.5C 636.833,231.5 634.167,231.5 631.5,231.5C 631.649,230.448 631.483,229.448 631,228.5C 626.549,225.332 624.049,220.999 623.5,215.5C 622.5,215.5 621.5,215.5 620.5,215.5C 620.5,212.167 618.833,210.5 615.5,210.5C 615.5,208.167 615.5,205.833 615.5,203.5C 612.833,203.5 610.167,203.5 607.5,203.5C 607.5,201.167 607.5,198.833 607.5,196.5C 604.167,196.5 602.5,194.833 602.5,191.5C 601.5,191.5 600.5,191.5 599.5,191.5C 599.5,190.167 599.5,188.833 599.5,187.5C 596.5,187.833 595.167,186.5 595.5,183.5C 594.167,183.5 592.833,183.5 591.5,183.5C 591.5,182.167 591.5,180.833 591.5,179.5C 590.178,179.67 589.011,179.337 588,178.5C 587.764,176.236 587.264,174.069 586.5,172C 585.552,171.517 584.552,171.351 583.5,171.5C 583.5,170.167 583.5,168.833 583.5,167.5C 582.167,167.5 580.833,167.5 579.5,167.5C 579.5,164.833 579.5,162.167 579.5,159.5C 577.801,159.66 576.134,159.494 574.5,159C 572.5,156.667 570.5,154.333 568.5,152C 567.552,151.517 566.552,151.351 565.5,151.5C 564.167,148.833 562.833,146.167 561.5,143.5C 559.097,143.607 557.264,142.607 556,140.5C 555.047,138.545 553.713,136.878 552,135.5C 551.51,134.207 551.343,132.873 551.5,131.5C 548.5,131.833 547.167,130.5 547.5,127.5C 546.167,127.5 544.833,127.5 543.5,127.5C 543.649,126.448 543.483,125.448 543,124.5C 540.833,123.667 539.333,122.167 538.5,120C 539.448,119.517 540.448,119.351 541.5,119.5C 541.5,118.167 541.5,116.833 541.5,115.5C 539.5,115.5 537.5,115.5 535.5,115.5C 535.5,114.167 535.5,112.833 535.5,111.5C 534.5,111.5 533.5,111.5 532.5,111.5C 532.5,108.167 530.833,106.5 527.5,106.5C 527.785,104.712 527.452,103.045 526.5,101.5C 522.272,99.8344 519.772,96.8344 519,92.5C 516.833,91.6667 515.333,90.1667 514.5,88C 513.167,87.6667 511.833,87.3333 510.5,87C 508.451,84.4066 506.285,81.9066 504,79.5C 503.667,76.8333 503.333,74.1667 503,71.5C 501.287,70.1218 499.953,68.4552 499,66.5C 497.152,63.9586 494.652,62.9586 491.5,63.5C 491.5,60.8333 491.5,58.1667 491.5,55.5C 490.167,55.5 488.833,55.5 487.5,55.5C 487.5,54.1667 487.5,52.8333 487.5,51.5C 484.833,51.5 482.167,51.5 479.5,51.5C 479.657,50.1266 479.49,48.7932 479,47.5C 474,42.1667 469,36.8333 464,31.5C 463.51,30.2068 463.343,28.8734 463.5,27.5C 462.448,27.6495 461.448,27.4828 460.5,27C 459.04,22.7075 456.207,19.8742 452,18.5C 450.218,15.5876 448.718,12.5876 447.5,9.5C 443.523,7.57675 441.523,4.24342 441.5,-0.5 Z"/></g>
<g><path style="opacity:1" fill="#202020" d="M 579.5,-0.5 C 599.5,-0.5 619.5,-0.5 639.5,-0.5C 639.5,22.1667 639.5,44.8333 639.5,67.5C 636.729,67.5793 634.063,67.0793 631.5,66C 640.673,64.2222 640.673,63.3888 631.5,63.5C 631.5,61.5 631.5,59.5 631.5,57.5C 628.833,57.5 626.167,57.5 623.5,57.5C 623.5,55.5 623.5,53.5 623.5,51.5C 620.5,51.8333 619.167,50.5 619.5,47.5C 620.833,47.5 622.167,47.5 623.5,47.5C 623.5,46.1667 623.5,44.8333 623.5,43.5C 619.818,43.6653 616.152,43.4986 612.5,43C 611.736,40.9307 611.236,38.764 611,36.5C 609.989,35.6634 608.822,35.33 607.5,35.5C 607.5,34.1667 607.5,32.8333 607.5,31.5C 606.167,31.5 604.833,31.5 603.5,31.5C 603.833,28.5 602.5,27.1667 599.5,27.5C 599.5,24.8333 599.5,22.1667 599.5,19.5C 596.5,19.8333 595.167,18.5 595.5,15.5C 594.167,15.5 592.833,15.5 591.5,15.5C 591.5,14.1667 591.5,12.8333 591.5,11.5C 588.5,11.8333 587.167,10.5 587.5,7.5C 586.167,7.5 584.833,7.5 583.5,7.5C 583.5,6.16667 583.5,4.83333 583.5,3.5C 580.5,3.83333 579.167,2.5 579.5,-0.5 Z"/></g>
<g><path style="opacity:1" fill="#fdfdfd" d="M 386.5,180.5 C 392.249,183.878 398.249,187.044 404.5,190C 415.687,197.354 425.02,206.521 432.5,217.5C 432.473,222.516 430.139,225.85 425.5,227.5C 421.323,226.869 417.156,226.203 413,225.5C 410.569,226.686 409.403,228.686 409.5,231.5C 405.445,231.176 401.445,231.509 397.5,232.5C 397.014,234.497 395.847,235.831 394,236.5C 389.133,235.188 384.299,235.354 379.5,237C 380.325,238.688 381.325,238.855 382.5,237.5C 385.443,238.244 388.443,238.744 391.5,239C 387.571,240.638 383.571,240.805 379.5,239.5C 379.528,241.582 378.861,243.416 377.5,245C 376.256,245.456 375.423,244.956 375,243.5C 373.594,245.364 373.094,247.197 373.5,249C 371.62,248.49 369.787,248.657 368,249.5C 367.667,248.833 367.333,248.167 367,247.5C 364.798,248.402 362.632,249.402 360.5,250.5C 361.167,251.167 361.833,251.833 362.5,252.5C 359.037,254.062 355.37,254.895 351.5,255C 352.308,255.308 352.975,255.808 353.5,256.5C 351.827,258.523 351.16,260.856 351.5,263.5C 349.833,263.5 348.167,263.5 346.5,263.5C 346.5,266.167 346.5,268.833 346.5,271.5C 348.167,271.5 349.833,271.5 351.5,271.5C 351.5,272.5 351.5,273.5 351.5,274.5C 348.728,274.78 346.228,274.113 344,272.5C 342.933,273.191 341.766,273.691 340.5,274C 343.946,274.704 343.946,276.037 340.5,278C 334.5,278.333 328.5,278.667 322.5,279C 318.867,279.149 315.534,279.982 312.5,281.5C 293.019,287.984 279.353,300.65 271.5,319.5C 269.926,319.937 268.759,320.937 268,322.5C 267.551,326.105 266.384,329.438 264.5,332.5C 261.318,330.361 258.318,330.861 255.5,334C 257.932,335.087 257.598,335.587 254.5,335.5C 254.98,338.685 254.314,341.519 252.5,344C 252.833,344.333 253.167,344.667 253.5,345C 250.881,345.151 248.547,345.985 246.5,347.5C 244.49,345.829 242.157,345.162 239.5,345.5C 239.5,346.5 239.5,347.5 239.5,348.5C 238.325,348.281 237.325,348.614 236.5,349.5C 236.113,352.206 235.113,354.539 233.5,356.5C 230.242,355.583 226.909,355.249 223.5,355.5C 223.386,359.59 222.219,363.257 220,366.5C 218.283,365.545 216.616,364.545 215,363.5C 213.318,364.865 213.151,366.365 214.5,368C 213.127,368.875 211.627,369.375 210,369.5C 205.581,367.301 203.248,368.634 203,373.5C 202.259,374.641 201.425,374.641 200.5,373.5C 199.833,374.5 199.167,375.5 198.5,376.5C 196.382,375.054 194.049,374.387 191.5,374.5C 191.461,376.359 192.294,377.692 194,378.5C 194.722,380.661 194.055,382.328 192,383.5C 190.215,382.76 188.382,382.093 186.5,381.5C 183.557,382.244 180.557,382.744 177.5,383C 179.473,383.495 181.473,383.662 183.5,383.5C 183.5,384.5 183.5,385.5 183.5,386.5C 180.478,386.804 177.478,387.304 174.5,388C 173.62,389.356 173.286,390.856 173.5,392.5C 171.208,392.756 169.041,392.423 167,391.5C 165.509,393.004 163.676,393.837 161.5,394C 160.219,397.037 159.385,400.537 159,404.5C 158.667,404.167 158.333,403.833 158,403.5C 154.796,406.113 151.63,406.113 148.5,403.5C 146.807,405.279 144.807,405.779 142.5,405C 143.5,404 144.5,403 145.5,402C 143.324,401.837 141.491,401.004 140,399.5C 139.617,400.056 139.117,400.389 138.5,400.5C 134.84,395.187 131.673,389.52 129,383.5C 118.832,352.52 123.165,323.853 142,297.5C 168.902,266.732 201.735,258.065 240.5,271.5C 240.537,265.465 241.037,259.465 242,253.5C 244.656,245.874 247.156,238.207 249.5,230.5C 259.831,212.332 273.831,197.499 291.5,186C 322.429,170.294 354.095,168.46 386.5,180.5 Z"/></g>
<g><path style="opacity:1" fill="#f3f5f9" d="M 432.5,217.5 C 436.575,221.976 439.908,226.976 442.5,232.5C 439.541,231.748 436.874,232.582 434.5,235C 435.895,237.075 435.562,238.908 433.5,240.5C 433.833,241.167 434.167,241.833 434.5,242.5C 432.693,246.657 431.693,250.99 431.5,255.5C 432.978,255.238 434.311,255.571 435.5,256.5C 432.519,261.73 431.186,267.397 431.5,273.5C 429.283,274.369 426.95,274.702 424.5,274.5C 423.757,272.304 423.424,270.304 423.5,268.5C 424.152,266.517 425.152,264.683 426.5,263C 426.167,262.5 425.833,262 425.5,261.5C 424.033,261.723 422.533,262.056 421,262.5C 422.338,260.851 422.838,258.851 422.5,256.5C 416.144,255.796 409.81,255.13 403.5,254.5C 401.698,256.034 399.865,256.368 398,255.5C 395.529,257.213 392.862,258.547 390,259.5C 388.699,260.098 387.865,261.098 387.5,262.5C 386.311,263.429 384.978,263.762 383.5,263.5C 383.719,264.675 383.386,265.675 382.5,266.5C 380.111,267.18 377.778,268.014 375.5,269C 376.328,269.915 377.328,270.581 378.5,271C 370.658,270.979 366.825,274.812 367,282.5C 364.58,281.512 362.247,281.845 360,283.5C 359.374,281.009 358.541,281.009 357.5,283.5C 356.304,283.154 356.304,282.654 357.5,282C 355.782,281.654 354.115,281.154 352.5,280.5C 350.729,281.035 350.396,281.869 351.5,283C 350.906,283.464 350.239,283.631 349.5,283.5C 337.317,280.428 324.984,279.761 312.5,281.5C 315.534,279.982 318.867,279.149 322.5,279C 328.5,278.667 334.5,278.333 340.5,278C 343.946,276.037 343.946,274.704 340.5,274C 341.766,273.691 342.933,273.191 344,272.5C 346.228,274.113 348.728,274.78 351.5,274.5C 351.5,273.5 351.5,272.5 351.5,271.5C 349.833,271.5 348.167,271.5 346.5,271.5C 346.5,268.833 346.5,266.167 346.5,263.5C 348.167,263.5 349.833,263.5 351.5,263.5C 351.16,260.856 351.827,258.523 353.5,256.5C 352.975,255.808 352.308,255.308 351.5,255C 355.37,254.895 359.037,254.062 362.5,252.5C 361.833,251.833 361.167,251.167 360.5,250.5C 362.632,249.402 364.798,248.402 367,247.5C 367.333,248.167 367.667,248.833 368,249.5C 369.787,248.657 371.62,248.49 373.5,249C 373.094,247.197 373.594,245.364 375,243.5C 375.423,244.956 376.256,245.456 377.5,245C 378.861,243.416 379.528,241.582 379.5,239.5C 383.571,240.805 387.571,240.638 391.5,239C 388.443,238.744 385.443,238.244 382.5,237.5C 381.325,238.855 380.325,238.688 379.5,237C 384.299,235.354 389.133,235.188 394,236.5C 395.847,235.831 397.014,234.497 397.5,232.5C 401.445,231.509 405.445,231.176 409.5,231.5C 409.403,228.686 410.569,226.686 413,225.5C 417.156,226.203 421.323,226.869 425.5,227.5C 430.139,225.85 432.473,222.516 432.5,217.5 Z"/></g>
<g><path style="opacity:1" fill="#efe8e3" d="M 442.5,232.5 C 444.642,235.8 445.975,239.467 446.5,243.5C 441.921,245.728 440.921,248.895 443.5,253C 442.874,253.75 442.374,254.584 442,255.5C 441.779,260.22 441.279,264.887 440.5,269.5C 440.63,271.423 440.964,273.256 441.5,275C 440.934,275.995 440.267,276.828 439.5,277.5C 437.744,278.552 437.077,280.219 437.5,282.5C 435.5,282.5 433.5,282.5 431.5,282.5C 431.5,279.5 431.5,276.5 431.5,273.5C 431.186,267.397 432.519,261.73 435.5,256.5C 434.311,255.571 432.978,255.238 431.5,255.5C 431.693,250.99 432.693,246.657 434.5,242.5C 434.167,241.833 433.833,241.167 433.5,240.5C 435.562,238.908 435.895,237.075 434.5,235C 436.874,232.582 439.541,231.748 442.5,232.5 Z"/></g>
<g><path style="opacity:1" fill="#f1d8c9" d="M 446.5,243.5 C 451.312,252.081 453.645,261.414 453.5,271.5C 452.414,271.62 451.747,272.287 451.5,273.5C 450.892,276.145 450.392,278.812 450,281.5C 448.756,278.362 448.089,275.028 448,271.5C 447.831,278.524 447.331,285.524 446.5,292.5C 442.848,295.176 441.514,298.842 442.5,303.5C 440.84,295.055 439.84,286.389 439.5,277.5C 440.267,276.828 440.934,275.995 441.5,275C 440.964,273.256 440.63,271.423 440.5,269.5C 441.279,264.887 441.779,260.22 442,255.5C 442.374,254.584 442.874,253.75 443.5,253C 440.921,248.895 441.921,245.728 446.5,243.5 Z"/></g>
<g><path style="opacity:1" fill="#e4eef9" d="M 423.5,268.5 C 421.243,269.613 420.576,271.279 421.5,273.5C 416.85,274.102 412.683,275.769 409,278.5C 408,278.167 407,277.833 406,277.5C 401.49,280.175 396.656,281.842 391.5,282.5C 391.5,283.833 391.5,285.167 391.5,286.5C 388.794,286.575 386.127,286.908 383.5,287.5C 382.565,290.919 380.232,292.753 376.5,293C 375.157,295.232 373.49,297.066 371.5,298.5C 364.671,292.655 357.337,287.655 349.5,283.5C 350.239,283.631 350.906,283.464 351.5,283C 350.396,281.869 350.729,281.035 352.5,280.5C 354.115,281.154 355.782,281.654 357.5,282C 356.304,282.654 356.304,283.154 357.5,283.5C 358.541,281.009 359.374,281.009 360,283.5C 362.247,281.845 364.58,281.512 367,282.5C 366.825,274.812 370.658,270.979 378.5,271C 377.328,270.581 376.328,269.915 375.5,269C 377.778,268.014 380.111,267.18 382.5,266.5C 383.386,265.675 383.719,264.675 383.5,263.5C 384.978,263.762 386.311,263.429 387.5,262.5C 387.865,261.098 388.699,260.098 390,259.5C 392.862,258.547 395.529,257.213 398,255.5C 399.865,256.368 401.698,256.034 403.5,254.5C 409.81,255.13 416.144,255.796 422.5,256.5C 422.838,258.851 422.338,260.851 421,262.5C 422.533,262.056 424.033,261.723 425.5,261.5C 425.833,262 426.167,262.5 426.5,263C 425.152,264.683 424.152,266.517 423.5,268.5 Z"/></g>
<g><path style="opacity:1" fill="#d8cfce" d="M 439.5,277.5 C 439.84,286.389 440.84,295.055 442.5,303.5C 442.5,304.833 442.5,306.167 442.5,307.5C 446.534,307.517 450.201,308.517 453.5,310.5C 449.865,309.886 446.198,309.552 442.5,309.5C 439.038,308.518 435.371,308.185 431.5,308.5C 431.5,299.833 431.5,291.167 431.5,282.5C 433.5,282.5 435.5,282.5 437.5,282.5C 437.077,280.219 437.744,278.552 439.5,277.5 Z"/></g>
<g><path style="opacity:1" fill="#d0e1ed" d="M 423.5,268.5 C 423.424,270.304 423.757,272.304 424.5,274.5C 426.95,274.702 429.283,274.369 431.5,273.5C 431.5,276.5 431.5,279.5 431.5,282.5C 431.5,291.167 431.5,299.833 431.5,308.5C 430.448,308.649 429.448,308.483 428.5,308C 427.403,305.235 425.403,303.569 422.5,303C 422.833,302.667 423.167,302.333 423.5,302C 420.895,298.602 417.728,295.769 414,293.5C 410.077,295.15 405.911,295.983 401.5,296C 396.416,298.537 391.083,300.537 385.5,302C 383.113,302.976 381.946,304.809 382,307.5C 381.558,303.75 379.724,302.75 376.5,304.5C 374.367,302.909 372.701,300.909 371.5,298.5C 373.49,297.066 375.157,295.232 376.5,293C 380.232,292.753 382.565,290.919 383.5,287.5C 386.127,286.908 388.794,286.575 391.5,286.5C 391.5,285.167 391.5,283.833 391.5,282.5C 396.656,281.842 401.49,280.175 406,277.5C 407,277.833 408,278.167 409,278.5C 412.683,275.769 416.85,274.102 421.5,273.5C 420.576,271.279 421.243,269.613 423.5,268.5 Z"/></g>
<g><path style="opacity:1" fill="#bedaee" d="M 431.5,308.5 C 435.371,308.185 439.038,308.518 442.5,309.5C 436.771,309.212 431.104,309.546 425.5,310.5C 424.3,309.469 422.966,308.635 421.5,308C 421.833,307.667 422.167,307.333 422.5,307C 420.078,305.641 417.578,304.475 415,303.5C 410.08,304.744 405.58,306.911 401.5,310C 397.477,310.145 393.644,310.979 390,312.5C 388.467,312.056 386.967,311.723 385.5,311.5C 384.141,312.624 383.141,313.958 382.5,315.5C 380.472,311.816 378.472,308.15 376.5,304.5C 379.724,302.75 381.558,303.75 382,307.5C 381.946,304.809 383.113,302.976 385.5,302C 391.083,300.537 396.416,298.537 401.5,296C 405.911,295.983 410.077,295.15 414,293.5C 417.728,295.769 420.895,298.602 423.5,302C 423.167,302.333 422.833,302.667 422.5,303C 425.403,303.569 427.403,305.235 428.5,308C 429.448,308.483 430.448,308.649 431.5,308.5 Z"/></g>
<g><path style="opacity:1" fill="#f1bea0" d="M 453.5,271.5 C 453.523,276.874 454.023,282.207 455,287.5C 457.277,288.117 459.444,288.784 461.5,289.5C 458.102,289.18 454.768,289.513 451.5,290.5C 452.734,292.398 452.401,294.065 450.5,295.5C 453.009,297.59 452.675,299.423 449.5,301C 450.833,301.667 452.167,302.333 453.5,303C 453.043,303.414 452.709,303.914 452.5,304.5C 455.845,307.835 459.512,310.502 463.5,312.5C 461.833,312.5 460.167,312.5 458.5,312.5C 457.07,311.463 455.403,310.796 453.5,310.5C 450.201,308.517 446.534,307.517 442.5,307.5C 442.5,306.167 442.5,304.833 442.5,303.5C 441.514,298.842 442.848,295.176 446.5,292.5C 447.331,285.524 447.831,278.524 448,271.5C 448.089,275.028 448.756,278.362 450,281.5C 450.392,278.812 450.892,276.145 451.5,273.5C 451.747,272.287 452.414,271.62 453.5,271.5 Z"/></g>
<g><path style="opacity:1" fill="#fbb482" d="M 461.5,289.5 C 463.415,289.216 465.081,289.549 466.5,290.5C 462.818,290.335 459.152,290.501 455.5,291C 456.5,291.833 457.5,292.667 458.5,293.5C 457.833,294.167 457.167,294.833 456.5,295.5C 457.76,296.382 458.926,297.382 460,298.5C 460,299.833 460,301.167 460,302.5C 462.081,303.333 464.248,303.333 466.5,302.5C 466.33,303.822 466.663,304.989 467.5,306C 473.635,309.811 479.469,313.977 485,318.5C 487.197,321.386 489.03,324.552 490.5,328C 492.367,328.711 493.867,328.211 495,326.5C 495.498,329.482 495.665,332.482 495.5,335.5C 496.675,335.281 497.675,335.614 498.5,336.5C 499.167,338.5 499.833,340.5 500.5,342.5C 504.842,344.993 507.342,348.66 508,353.5C 509.979,354.714 511.479,356.381 512.5,358.5C 513.182,357.757 513.849,357.091 514.5,356.5C 514.5,358.833 514.5,361.167 514.5,363.5C 513.325,363.719 512.325,363.386 511.5,362.5C 508.697,358.198 505.364,354.365 501.5,351C 501.833,350.667 502.167,350.333 502.5,350C 501.206,347.913 500.039,345.746 499,343.5C 497.989,342.663 496.822,342.33 495.5,342.5C 493.154,339.313 490.987,335.98 489,332.5C 487.588,330.314 485.755,328.648 483.5,327.5C 480.607,324.636 477.607,321.97 474.5,319.5C 473.878,316.224 471.878,314.891 468.5,315.5C 466.712,314.64 465.045,313.64 463.5,312.5C 459.512,310.502 455.845,307.835 452.5,304.5C 452.709,303.914 453.043,303.414 453.5,303C 452.167,302.333 450.833,301.667 449.5,301C 452.675,299.423 453.009,297.59 450.5,295.5C 452.401,294.065 452.734,292.398 451.5,290.5C 454.768,289.513 458.102,289.18 461.5,289.5 Z"/></g>
<g><path style="opacity:1" fill="#abd0eb" d="M 442.5,309.5 C 446.198,309.552 449.865,309.886 453.5,310.5C 455.403,310.796 457.07,311.463 458.5,312.5C 448.238,310.704 437.904,310.204 427.5,311C 424.412,312.018 421.412,313.185 418.5,314.5C 414.408,314.51 411.074,316.01 408.5,319C 401.508,319.5 394.508,319.666 387.5,319.5C 387.795,321.735 387.461,323.735 386.5,325.5C 385.655,324.329 384.989,322.995 384.5,321.5C 384.029,319.421 383.363,317.421 382.5,315.5C 383.141,313.958 384.141,312.624 385.5,311.5C 386.967,311.723 388.467,312.056 390,312.5C 393.644,310.979 397.477,310.145 401.5,310C 405.58,306.911 410.08,304.744 415,303.5C 417.578,304.475 420.078,305.641 422.5,307C 422.167,307.333 421.833,307.667 421.5,308C 422.966,308.635 424.3,309.469 425.5,310.5C 431.104,309.546 436.771,309.212 442.5,309.5 Z"/></g>
<g><path style="opacity:1" fill="#12263d" d="M 349.5,283.5 C 357.337,287.655 364.671,292.655 371.5,298.5C 372.701,300.909 374.367,302.909 376.5,304.5C 378.472,308.15 380.472,311.816 382.5,315.5C 383.363,317.421 384.029,319.421 384.5,321.5C 383.837,323.641 383.503,325.975 383.5,328.5C 385.077,336.111 385.577,343.777 385,351.5C 382.37,359.697 379.37,367.697 376,375.5C 372.103,376.62 370.27,379.287 370.5,383.5C 369.5,383.5 368.5,383.5 367.5,383.5C 367.5,384.833 367.5,386.167 367.5,387.5C 365.94,387.519 364.44,387.852 363,388.5C 358.256,392.097 353.422,395.43 348.5,398.5C 339.284,402.136 329.617,403.47 319.5,402.5C 317.5,402.167 315.5,401.833 313.5,401.5C 310.821,400.774 308.154,399.941 305.5,399C 300.972,395.904 296.305,393.071 291.5,390.5C 289.167,387.5 286.5,384.833 283.5,382.5C 271.62,367.618 266.62,350.618 268.5,331.5C 269.918,327.713 270.918,323.713 271.5,319.5C 279.353,300.65 293.019,287.984 312.5,281.5C 324.984,279.761 337.317,280.428 349.5,283.5 Z"/></g>
<g><path style="opacity:1" fill="#f5f7f8" d="M 319.5,309.5 C 336.276,307.047 349.776,312.381 360,325.5C 361.481,334.686 357.647,338.519 348.5,337C 345.537,335.039 342.871,332.706 340.5,330C 333.086,326.359 325.42,325.692 317.5,328C 313.833,331 310.167,334 306.5,337C 299.57,338.583 295.903,335.749 295.5,328.5C 295.622,326.209 296.455,324.209 298,322.5C 303.928,315.96 311.094,311.626 319.5,309.5 Z"/></g>
<g><path style="opacity:1" fill="#fac570" d="M 482.5,297.5 C 494.694,304.026 503.361,313.693 508.5,326.5C 509.737,332.368 510.737,338.368 511.5,344.5C 509.852,343.19 508.186,341.857 506.5,340.5C 507.855,339.325 507.688,338.325 506,337.5C 504.334,338.34 504.167,337.84 505.5,336C 501.874,334.948 500.041,332.448 500,328.5C 498.647,327.315 497.48,325.981 496.5,324.5C 495.726,323.289 494.893,323.289 494,324.5C 493.506,322.866 493.34,321.199 493.5,319.5C 486.562,317.229 481.895,312.562 479.5,305.5C 478.325,305.719 477.325,305.386 476.5,304.5C 478.078,303.702 479.744,303.202 481.5,303C 480.874,302.25 480.374,301.416 480,300.5C 477.322,302.962 474.155,303.795 470.5,303C 472.286,302.804 473.619,301.971 474.5,300.5C 472.136,298.904 469.47,297.738 466.5,297C 467.337,295.989 467.67,294.822 467.5,293.5C 472.429,294.983 477.429,296.316 482.5,297.5 Z"/></g>
<g><path style="opacity:1" fill="#3bd6fe" d="M 487.5,343.5 C 488.167,346.167 488.833,348.833 489.5,351.5C 489.162,353.854 488.662,356.187 488,358.5C 487.586,354.649 486.752,350.983 485.5,347.5C 481.712,347.068 478.045,346.068 474.5,344.5C 470.104,341.304 465.437,338.637 460.5,336.5C 459.687,335.186 458.687,334.019 457.5,333C 451.183,329.687 444.516,327.354 437.5,326C 437.833,325.667 438.167,325.333 438.5,325C 433.584,323.839 428.584,323.173 423.5,323C 418.604,320.876 418.604,319.543 423.5,319C 421.937,318.241 420.937,317.074 420.5,315.5C 421.15,315.804 421.817,316.137 422.5,316.5C 425.333,315.067 428.333,314.4 431.5,314.5C 431.281,315.675 431.614,316.675 432.5,317.5C 435.762,316.72 438.929,316.387 442,316.5C 447.729,318.179 453.562,319.346 459.5,320C 459.167,320.333 458.833,320.667 458.5,321C 464.002,323.004 467.669,326.837 469.5,332.5C 471.743,333.474 474.076,333.808 476.5,333.5C 476.5,334.5 476.5,335.5 476.5,336.5C 478.124,336.36 479.29,337.027 480,338.5C 483.047,335.977 484.713,336.977 485,341.5C 485.995,342.066 486.828,342.733 487.5,343.5 Z"/></g>
<g><path style="opacity:1" fill="#49d9f8" d="M 458.5,312.5 C 460.167,312.5 461.833,312.5 463.5,312.5C 465.045,313.64 466.712,314.64 468.5,315.5C 469.402,317.341 470.736,318.674 472.5,319.5C 472.428,323.637 474.428,325.97 478.5,326.5C 479.522,328.855 481.188,330.522 483.5,331.5C 484.75,334.006 485.416,336.673 485.5,339.5C 487.59,339.45 488.923,340.45 489.5,342.5C 489.043,343.298 488.376,343.631 487.5,343.5C 486.828,342.733 485.995,342.066 485,341.5C 484.713,336.977 483.047,335.977 480,338.5C 479.29,337.027 478.124,336.36 476.5,336.5C 476.5,335.5 476.5,334.5 476.5,333.5C 474.076,333.808 471.743,333.474 469.5,332.5C 467.669,326.837 464.002,323.004 458.5,321C 458.833,320.667 459.167,320.333 459.5,320C 453.562,319.346 447.729,318.179 442,316.5C 438.929,316.387 435.762,316.72 432.5,317.5C 431.614,316.675 431.281,315.675 431.5,314.5C 428.333,314.4 425.333,315.067 422.5,316.5C 421.817,316.137 421.15,315.804 420.5,315.5C 419.833,315.5 419.167,315.5 418.5,315.5C 418.5,315.167 418.5,314.833 418.5,314.5C 421.412,313.185 424.412,312.018 427.5,311C 437.904,310.204 448.238,310.704 458.5,312.5 Z"/></g>
<g><path style="opacity:1" fill="#d2bbaf" d="M 468.5,315.5 C 471.878,314.891 473.878,316.224 474.5,319.5C 473.833,319.5 473.167,319.5 472.5,319.5C 470.736,318.674 469.402,317.341 468.5,315.5 Z"/></g>
<g><path style="opacity:1" fill="#38d0fd" d="M 418.5,315.5 C 419.167,315.5 419.833,315.5 420.5,315.5C 420.937,317.074 421.937,318.241 423.5,319C 418.604,319.543 418.604,320.876 423.5,323C 428.584,323.173 433.584,323.839 438.5,325C 438.167,325.333 437.833,325.667 437.5,326C 444.516,327.354 451.183,329.687 457.5,333C 458.687,334.019 459.687,335.186 460.5,336.5C 465.437,338.637 470.104,341.304 474.5,344.5C 478.045,346.068 481.712,347.068 485.5,347.5C 486.752,350.983 487.586,354.649 488,358.5C 488.662,356.187 489.162,353.854 489.5,351.5C 490.461,353.265 490.795,355.265 490.5,357.5C 490.672,358.492 490.338,359.158 489.5,359.5C 488.603,360.598 487.77,360.598 487,359.5C 485.381,351.551 483.714,351.551 482,359.5C 480.156,357.989 478.656,356.155 477.5,354C 477.905,353.055 478.572,352.388 479.5,352C 477.536,351.376 475.869,351.876 474.5,353.5C 472.015,348.923 468.349,347.09 463.5,348C 457.321,345.322 451.321,342.322 445.5,339C 438.556,336.909 431.556,334.909 424.5,333C 421.518,332.502 418.518,332.335 415.5,332.5C 415.5,333.5 415.5,334.5 415.5,335.5C 414.448,335.649 413.448,335.483 412.5,335C 413.451,334.282 413.617,333.449 413,332.5C 412.019,335.655 410.685,335.988 409,333.5C 408.326,334.578 407.326,335.245 406,335.5C 404.463,334.886 403.13,334.886 402,335.5C 401.333,334.833 400.667,334.167 400,333.5C 398.951,335.107 397.451,335.773 395.5,335.5C 396.818,332.981 398.485,330.648 400.5,328.5C 403.729,326.058 406.729,323.392 409.5,320.5C 411.396,319.534 413.396,319.201 415.5,319.5C 415.5,318.5 415.5,317.5 415.5,316.5C 416.791,316.737 417.791,316.404 418.5,315.5 Z"/></g>
<g><path style="opacity:1" fill="#fdbd75" d="M 466.5,290.5 C 472.36,291.766 477.693,294.1 482.5,297.5C 477.429,296.316 472.429,294.983 467.5,293.5C 467.67,294.822 467.337,295.989 466.5,297C 469.47,297.738 472.136,298.904 474.5,300.5C 473.619,301.971 472.286,302.804 470.5,303C 474.155,303.795 477.322,302.962 480,300.5C 480.374,301.416 480.874,302.25 481.5,303C 479.744,303.202 478.078,303.702 476.5,304.5C 477.325,305.386 478.325,305.719 479.5,305.5C 481.895,312.562 486.562,317.229 493.5,319.5C 493.34,321.199 493.506,322.866 494,324.5C 494.893,323.289 495.726,323.289 496.5,324.5C 497.48,325.981 498.647,327.315 500,328.5C 500.041,332.448 501.874,334.948 505.5,336C 504.167,337.84 504.334,338.34 506,337.5C 507.688,338.325 507.855,339.325 506.5,340.5C 508.186,341.857 509.852,343.19 511.5,344.5C 511.5,345.833 511.5,347.167 511.5,348.5C 512.5,348.5 513.5,348.5 514.5,348.5C 514.5,351.167 514.5,353.833 514.5,356.5C 513.849,357.091 513.182,357.757 512.5,358.5C 511.479,356.381 509.979,354.714 508,353.5C 507.342,348.66 504.842,344.993 500.5,342.5C 499.833,340.5 499.167,338.5 498.5,336.5C 497.675,335.614 496.675,335.281 495.5,335.5C 495.665,332.482 495.498,329.482 495,326.5C 493.867,328.211 492.367,328.711 490.5,328C 489.03,324.552 487.197,321.386 485,318.5C 479.469,313.977 473.635,309.811 467.5,306C 466.663,304.989 466.33,303.822 466.5,302.5C 464.248,303.333 462.081,303.333 460,302.5C 460,301.167 460,299.833 460,298.5C 458.926,297.382 457.76,296.382 456.5,295.5C 457.167,294.833 457.833,294.167 458.5,293.5C 457.5,292.667 456.5,291.833 455.5,291C 459.152,290.501 462.818,290.335 466.5,290.5 Z"/></g>
<g><path style="opacity:1" fill="#8ac6ef" d="M 418.5,314.5 C 418.5,314.833 418.5,315.167 418.5,315.5C 417.791,316.404 416.791,316.737 415.5,316.5C 415.5,317.5 415.5,318.5 415.5,319.5C 413.396,319.201 411.396,319.534 409.5,320.5C 406.729,323.392 403.729,326.058 400.5,328.5C 398.485,330.648 396.818,332.981 395.5,335.5C 394.946,337.889 393.446,339.555 391,340.5C 390.281,344.145 389.781,347.812 389.5,351.5C 388.833,351.5 388.167,351.5 387.5,351.5C 387.711,342.8 387.377,334.133 386.5,325.5C 387.461,323.735 387.795,321.735 387.5,319.5C 394.508,319.666 401.508,319.5 408.5,319C 411.074,316.01 414.408,314.51 418.5,314.5 Z"/></g>
<g><path style="opacity:1" fill="#93cdd4" d="M 472.5,319.5 C 473.167,319.5 473.833,319.5 474.5,319.5C 477.607,321.97 480.607,324.636 483.5,327.5C 483.5,328.833 483.5,330.167 483.5,331.5C 481.188,330.522 479.522,328.855 478.5,326.5C 474.428,325.97 472.428,323.637 472.5,319.5 Z"/></g>
<g><path style="opacity:1" fill="#30cafd" d="M 489.5,359.5 C 489.5,362.167 489.5,364.833 489.5,367.5C 488.5,367.5 487.5,367.5 486.5,367.5C 486.704,359.169 484.871,358.169 481,364.5C 479.773,362.274 477.939,360.774 475.5,360C 471.459,359.827 467.459,359.327 463.5,358.5C 466.272,356.915 466.106,355.915 463,355.5C 461.893,355.585 460.893,355.919 460,356.5C 455.92,355.7 451.753,355.2 447.5,355C 445.009,354.374 445.009,353.541 447.5,352.5C 447,352.167 446.5,351.833 446,351.5C 443.88,352.459 441.713,352.626 439.5,352C 434.725,348.279 429.391,345.612 423.5,344C 415.295,343.037 407.129,342.204 399,341.5C 398.085,342.328 397.419,343.328 397,344.5C 396.259,343.359 395.425,343.359 394.5,344.5C 394.167,343.833 393.833,343.167 393.5,342.5C 394.937,340.423 395.604,338.09 395.5,335.5C 397.451,335.773 398.951,335.107 400,333.5C 400.667,334.167 401.333,334.833 402,335.5C 403.13,334.886 404.463,334.886 406,335.5C 407.326,335.245 408.326,334.578 409,333.5C 410.685,335.988 412.019,335.655 413,332.5C 413.617,333.449 413.451,334.282 412.5,335C 413.448,335.483 414.448,335.649 415.5,335.5C 415.5,334.5 415.5,333.5 415.5,332.5C 418.518,332.335 421.518,332.502 424.5,333C 431.556,334.909 438.556,336.909 445.5,339C 451.321,342.322 457.321,345.322 463.5,348C 468.349,347.09 472.015,348.923 474.5,353.5C 475.869,351.876 477.536,351.376 479.5,352C 478.572,352.388 477.905,353.055 477.5,354C 478.656,356.155 480.156,357.989 482,359.5C 483.714,351.551 485.381,351.551 487,359.5C 487.77,360.598 488.603,360.598 489.5,359.5 Z"/></g>
<g><path style="opacity:1" fill="#090909" d="M 639.5,468.5 C 639.5,512.167 639.5,555.833 639.5,599.5C 637.631,597.365 636.964,594.698 637.5,591.5C 635.5,591.5 633.5,591.5 631.5,591.5C 631.5,590.167 631.5,588.833 631.5,587.5C 630.178,587.67 629.011,587.337 628,586.5C 627.764,584.236 627.264,582.069 626.5,580C 625.552,579.517 624.552,579.351 623.5,579.5C 623.657,578.127 623.49,576.793 623,575.5C 618,570.167 613,564.833 608,559.5C 607.33,554.886 605.663,554.886 603,559.5C 602.667,557.167 602.333,554.833 602,552.5C 600.933,551.809 599.766,551.309 598.5,551C 594.084,547.459 591.751,542.959 591.5,537.5C 587.5,536.833 587.5,536.167 591.5,535.5C 591.663,533.143 591.497,530.81 591,528.5C 590.086,530.664 588.919,532.664 587.5,534.5C 586.081,532.664 584.914,530.664 584,528.5C 583.667,529.833 583.333,531.167 583,532.5C 579.979,528.747 578.812,524.414 579.5,519.5C 577.801,519.66 576.134,519.494 574.5,519C 567.167,511.333 559.833,503.667 552.5,496C 553.448,495.517 554.448,495.351 555.5,495.5C 555.67,494.178 555.337,493.011 554.5,492C 552.236,491.764 550.069,491.264 548,490.5C 547.517,489.552 547.351,488.552 547.5,487.5C 546.167,487.5 544.833,487.5 543.5,487.5C 543.5,484.833 543.5,482.167 543.5,479.5C 541.5,479.5 539.5,479.5 537.5,479.5C 537.5,476.833 537.5,474.167 537.5,471.5C 535.833,471.5 534.167,471.5 532.5,471.5C 532.5,468.167 530.833,466.5 527.5,466.5C 527.663,464.143 527.497,461.81 527,459.5C 526,460.833 525,462.167 524,463.5C 522.19,459.575 520.69,455.575 519.5,451.5C 516.833,451.5 514.167,451.5 511.5,451.5C 511.5,450.167 511.5,448.833 511.5,447.5C 510.167,447.5 508.833,447.5 507.5,447.5C 507.5,444.833 507.5,442.167 507.5,439.5C 506.167,439.5 504.833,439.5 503.5,439.5C 503.649,438.448 503.483,437.448 503,436.5C 500.833,435.667 499.333,434.167 498.5,432C 495.169,431.921 492.169,431.087 489.5,429.5C 489.643,427.738 489.309,426.071 488.5,424.5C 490.797,423.102 492.963,421.436 495,419.5C 495.49,418.207 495.657,416.873 495.5,415.5C 499.5,409.5 503.5,403.5 507.5,397.5C 507.833,396.167 508.167,394.833 508.5,393.5C 509.833,392.833 510.833,391.833 511.5,390.5C 513.911,390.863 515.411,389.863 516,387.5C 515.869,384.905 516.036,382.405 516.5,380C 516.833,379.833 517.167,379.667 517.5,379.5C 518.167,380.833 518.833,382.167 519.5,383.5C 519.833,380.833 520.167,378.167 520.5,375.5C 519.201,364.94 517.868,354.44 516.5,344C 517.38,342.644 517.714,341.144 517.5,339.5C 518.5,339.5 519.5,339.5 520.5,339.5C 519.81,335.51 519.643,331.51 520,327.5C 523.634,330.931 526.134,334.931 527.5,339.5C 528.822,339.33 529.989,339.663 531,340.5C 531.236,342.764 531.736,344.931 532.5,347C 533.448,347.483 534.448,347.649 535.5,347.5C 535.5,348.833 535.5,350.167 535.5,351.5C 537.5,351.5 539.5,351.5 541.5,351.5C 541.5,354.167 541.5,356.833 541.5,359.5C 542.552,359.351 543.552,359.517 544.5,360C 550.667,366.167 556.833,372.333 563,378.5C 566.44,382.19 568.606,386.523 569.5,391.5C 572.167,391.5 574.833,391.5 577.5,391.5C 577.336,394.187 577.503,396.854 578,399.5C 581.86,403.357 585.194,407.691 588,412.5C 593,417.167 598,421.833 603,426.5C 603.953,428.455 605.287,430.122 607,431.5C 607.49,432.793 607.657,434.127 607.5,435.5C 610.5,435.167 611.833,436.5 611.5,439.5C 612.833,439.5 614.167,439.5 615.5,439.5C 615.5,440.833 615.5,442.167 615.5,443.5C 618.5,443.167 619.833,444.5 619.5,447.5C 620.833,447.5 622.167,447.5 623.5,447.5C 623.5,450.167 623.5,452.833 623.5,455.5C 624.833,455.5 626.167,455.5 627.5,455.5C 627.167,458.5 628.5,459.833 631.5,459.5C 631.5,460.833 631.5,462.167 631.5,463.5C 632.552,463.351 633.552,463.517 634.5,464C 635.39,466.391 637.057,467.891 639.5,468.5 Z"/></g>
<g><path style="opacity:1" fill="#eeae95" d="M 483.5,327.5 C 485.755,328.648 487.588,330.314 489,332.5C 490.987,335.98 493.154,339.313 495.5,342.5C 495.5,345.5 495.5,348.5 495.5,351.5C 495.356,347.687 493.689,344.687 490.5,342.5C 489.828,337.818 487.495,334.152 483.5,331.5C 483.5,330.167 483.5,328.833 483.5,327.5 Z"/></g>
<g><path style="opacity:1" fill="#dfb583" d="M 508.5,326.5 C 510.648,329.403 512.148,332.736 513,336.5C 514.663,344.47 516.163,352.47 517.5,360.5C 517.471,363.269 516.805,365.603 515.5,367.5C 515.5,366.5 515.5,365.5 515.5,364.5C 515.806,361.615 515.473,358.948 514.5,356.5C 514.5,353.833 514.5,351.167 514.5,348.5C 513.5,348.5 512.5,348.5 511.5,348.5C 511.5,347.167 511.5,345.833 511.5,344.5C 510.737,338.368 509.737,332.368 508.5,326.5 Z"/></g>
<g><path style="opacity:1" fill="#f4f7fb" d="M 271.5,319.5 C 270.918,323.713 269.918,327.713 268.5,331.5C 267.509,337.979 267.176,344.646 267.5,351.5C 264.093,351.125 263.593,352.125 266,354.5C 267.995,352.171 269.162,352.838 269.5,356.5C 268.349,357.731 267.183,357.731 266,356.5C 265.667,358.167 265.333,359.833 265,361.5C 264.667,360.833 264.333,360.167 264,359.5C 261.275,362.263 259.275,365.597 258,369.5C 257.692,368.692 257.192,368.025 256.5,367.5C 255.833,368.833 255.167,370.167 254.5,371.5C 250.563,373.035 246.563,374.368 242.5,375.5C 241.416,376.665 240.583,377.998 240,379.5C 237.598,376.742 235.598,377.075 234,380.5C 233.333,379.833 232.667,379.167 232,378.5C 231.506,380.134 231.34,381.801 231.5,383.5C 227.993,382.994 224.826,383.66 222,385.5C 220.644,384.62 219.144,384.286 217.5,384.5C 217.5,385.5 217.5,386.5 217.5,387.5C 215.073,387.523 212.74,388.023 210.5,389C 213.754,391.56 212.754,392.727 207.5,392.5C 207.771,394.821 207.104,396.821 205.5,398.5C 201.659,399.742 197.826,400.742 194,401.5C 191.793,405.849 190.96,410.515 191.5,415.5C 189.5,415.5 187.5,415.5 185.5,415.5C 185.657,414.127 185.49,412.793 185,411.5C 183.312,412.325 183.145,413.325 184.5,414.5C 181.373,414.98 178.54,415.98 176,417.5C 174.729,414.827 174.063,414.827 174,417.5C 175.067,418.191 176.234,418.691 177.5,419C 173.564,420.635 169.897,422.635 166.5,425C 167.451,425.718 167.617,426.551 167,427.5C 166.329,426.748 165.496,426.414 164.5,426.5C 153.5,420.167 144.833,411.5 138.5,400.5C 139.117,400.389 139.617,400.056 140,399.5C 141.491,401.004 143.324,401.837 145.5,402C 144.5,403 143.5,404 142.5,405C 144.807,405.779 146.807,405.279 148.5,403.5C 151.63,406.113 154.796,406.113 158,403.5C 158.333,403.833 158.667,404.167 159,404.5C 159.385,400.537 160.219,397.037 161.5,394C 163.676,393.837 165.509,393.004 167,391.5C 169.041,392.423 171.208,392.756 173.5,392.5C 173.286,390.856 173.62,389.356 174.5,388C 177.478,387.304 180.478,386.804 183.5,386.5C 183.5,385.5 183.5,384.5 183.5,383.5C 181.473,383.662 179.473,383.495 177.5,383C 180.557,382.744 183.557,382.244 186.5,381.5C 188.382,382.093 190.215,382.76 192,383.5C 194.055,382.328 194.722,380.661 194,378.5C 192.294,377.692 191.461,376.359 191.5,374.5C 194.049,374.387 196.382,375.054 198.5,376.5C 199.167,375.5 199.833,374.5 200.5,373.5C 201.425,374.641 202.259,374.641 203,373.5C 203.248,368.634 205.581,367.301 210,369.5C 211.627,369.375 213.127,368.875 214.5,368C 213.151,366.365 213.318,364.865 215,363.5C 216.616,364.545 218.283,365.545 220,366.5C 222.219,363.257 223.386,359.59 223.5,355.5C 226.909,355.249 230.242,355.583 233.5,356.5C 235.113,354.539 236.113,352.206 236.5,349.5C 237.325,348.614 238.325,348.281 239.5,348.5C 239.5,347.5 239.5,346.5 239.5,345.5C 242.157,345.162 244.49,345.829 246.5,347.5C 248.547,345.985 250.881,345.151 253.5,345C 253.167,344.667 252.833,344.333 252.5,344C 254.314,341.519 254.98,338.685 254.5,335.5C 257.598,335.587 257.932,335.087 255.5,334C 258.318,330.861 261.318,330.361 264.5,332.5C 266.384,329.438 267.551,326.105 268,322.5C 268.759,320.937 269.926,319.937 271.5,319.5 Z"/></g>
<g><path style="opacity:1" fill="#75c3e4" d="M 483.5,331.5 C 487.495,334.152 489.828,337.818 490.5,342.5C 491.036,345.555 491.869,348.555 493,351.5C 493.5,357.825 493.666,364.158 493.5,370.5C 493.167,370.5 492.833,370.5 492.5,370.5C 492.666,366.486 492.499,362.486 492,358.5C 491.617,357.944 491.117,357.611 490.5,357.5C 490.795,355.265 490.461,353.265 489.5,351.5C 488.833,348.833 488.167,346.167 487.5,343.5C 488.376,343.631 489.043,343.298 489.5,342.5C 488.923,340.45 487.59,339.45 485.5,339.5C 485.416,336.673 484.75,334.006 483.5,331.5 Z"/></g>
<g><path style="opacity:1" fill="#2fc3fd" d="M 395.5,335.5 C 395.604,338.09 394.937,340.423 393.5,342.5C 393.833,343.167 394.167,343.833 394.5,344.5C 395.425,343.359 396.259,343.359 397,344.5C 397.419,343.328 398.085,342.328 399,341.5C 407.129,342.204 415.295,343.037 423.5,344C 429.391,345.612 434.725,348.279 439.5,352C 441.713,352.626 443.88,352.459 446,351.5C 446.5,351.833 447,352.167 447.5,352.5C 445.009,353.541 445.009,354.374 447.5,355C 451.753,355.2 455.92,355.7 460,356.5C 460.893,355.919 461.893,355.585 463,355.5C 466.106,355.915 466.272,356.915 463.5,358.5C 467.459,359.327 471.459,359.827 475.5,360C 477.939,360.774 479.773,362.274 481,364.5C 484.871,358.169 486.704,359.169 486.5,367.5C 487.5,367.5 488.5,367.5 489.5,367.5C 489.5,364.833 489.5,362.167 489.5,359.5C 490.338,359.158 490.672,358.492 490.5,357.5C 491.117,357.611 491.617,357.944 492,358.5C 492.499,362.486 492.666,366.486 492.5,370.5C 491.736,373.018 490.736,375.351 489.5,377.5C 489.5,376.167 489.5,374.833 489.5,373.5C 487.604,370.943 485.937,367.609 484.5,363.5C 483.394,365.284 483.394,367.118 484.5,369C 484.37,370.059 483.87,370.892 483,371.5C 481.735,369.603 480.069,368.27 478,367.5C 473.523,366.82 469.023,366.32 464.5,366C 462.64,363.938 460.306,362.605 457.5,362C 449.146,361.088 440.813,360.088 432.5,359C 431.296,354.963 428.629,352.463 424.5,351.5C 423.719,352.737 422.719,353.737 421.5,354.5C 416.512,352.093 411.179,350.926 405.5,351C 403.349,349.43 401.182,347.93 399,346.5C 397.04,350.446 395.04,350.446 393,346.5C 392.015,348.175 391.181,349.842 390.5,351.5C 390.167,351.5 389.833,351.5 389.5,351.5C 389.781,347.812 390.281,344.145 391,340.5C 393.446,339.555 394.946,337.889 395.5,335.5 Z"/></g>
<g><path style="opacity:1" fill="#9aa2ad" d="M 333.5,352.5 C 331.453,352.489 329.453,352.156 327.5,351.5C 325.149,352.173 322.816,352.84 320.5,353.5C 324.578,349.988 328.912,349.654 333.5,352.5 Z"/></g>
<g><path style="opacity:1" fill="#fda77d" d="M 495.5,342.5 C 496.822,342.33 497.989,342.663 499,343.5C 500.039,345.746 501.206,347.913 502.5,350C 502.167,350.333 501.833,350.667 501.5,351C 505.364,354.365 508.697,358.198 511.5,362.5C 512.325,363.386 513.325,363.719 514.5,363.5C 514.5,361.167 514.5,358.833 514.5,356.5C 515.473,358.948 515.806,361.615 515.5,364.5C 514.691,366.292 514.191,368.292 514,370.5C 513.667,370.833 513.333,371.167 513,371.5C 512.51,370.207 512.343,368.873 512.5,367.5C 510.712,367.785 509.045,367.452 507.5,366.5C 505.303,362.762 502.636,359.429 499.5,356.5C 498.902,355.205 498.402,353.872 498,352.5C 497.329,351.748 496.496,351.414 495.5,351.5C 495.5,348.5 495.5,345.5 495.5,342.5 Z"/></g>
<g><path style="opacity:1" fill="#c5afbd" d="M 490.5,342.5 C 493.689,344.687 495.356,347.687 495.5,351.5C 495.5,354.167 495.5,356.833 495.5,359.5C 495.5,362.167 495.5,364.833 495.5,367.5C 494.833,368.5 494.167,369.5 493.5,370.5C 493.666,364.158 493.5,357.825 493,351.5C 491.869,348.555 491.036,345.555 490.5,342.5 Z"/></g>
<g><path style="opacity:1" fill="#2dbefe" d="M 489.5,373.5 C 488.85,373.196 488.183,372.863 487.5,372.5C 486.5,373.833 485.5,375.167 484.5,376.5C 483.667,375.5 482.833,374.5 482,373.5C 480.268,379.948 479.435,379.948 479.5,373.5C 472.309,373.988 465.309,373.155 458.5,371C 457.643,370.311 456.977,369.478 456.5,368.5C 450.73,367.961 445.23,366.627 440,364.5C 433.861,365.369 428.361,363.702 423.5,359.5C 422.061,360.063 420.561,360.397 419,360.5C 412.505,359.626 406.005,358.792 399.5,358C 397.771,356.211 397.104,354.044 397.5,351.5C 396.5,351.5 395.5,351.5 394.5,351.5C 395.486,361.759 394.153,361.759 390.5,351.5C 391.181,349.842 392.015,348.175 393,346.5C 395.04,350.446 397.04,350.446 399,346.5C 401.182,347.93 403.349,349.43 405.5,351C 411.179,350.926 416.512,352.093 421.5,354.5C 422.719,353.737 423.719,352.737 424.5,351.5C 428.629,352.463 431.296,354.963 432.5,359C 440.813,360.088 449.146,361.088 457.5,362C 460.306,362.605 462.64,363.938 464.5,366C 469.023,366.32 473.523,366.82 478,367.5C 480.069,368.27 481.735,369.603 483,371.5C 483.87,370.892 484.37,370.059 484.5,369C 483.394,367.118 483.394,365.284 484.5,363.5C 485.937,367.609 487.604,370.943 489.5,373.5 Z"/></g>
<g><path style="opacity:1" fill="#fc9b86" d="M 495.5,351.5 C 496.496,351.414 497.329,351.748 498,352.5C 498.402,353.872 498.902,355.205 499.5,356.5C 502.636,359.429 505.303,362.762 507.5,366.5C 509.045,367.452 510.712,367.785 512.5,367.5C 512.343,368.873 512.51,370.207 513,371.5C 513.333,371.167 513.667,370.833 514,370.5C 514.191,368.292 514.691,366.292 515.5,364.5C 515.5,365.5 515.5,366.5 515.5,367.5C 515.806,370.385 515.473,373.052 514.5,375.5C 513.833,375.5 513.5,375.833 513.5,376.5C 511.525,376.836 509.525,376.336 507.5,375C 502.854,370.142 498.854,364.975 495.5,359.5C 495.5,356.833 495.5,354.167 495.5,351.5 Z"/></g>
<g><path style="opacity:1" fill="#f3f8fc" d="M 333.5,352.5 C 337.12,354.453 340.12,357.119 342.5,360.5C 342.664,363.187 342.497,365.854 342,368.5C 332.724,368.368 323.224,368.368 313.5,368.5C 312.345,361.813 314.678,356.813 320.5,353.5C 322.816,352.84 325.149,352.173 327.5,351.5C 329.453,352.156 331.453,352.489 333.5,352.5 Z"/></g>
<g><path style="opacity:1" fill="#29b1fc" d="M 386.5,353.5 C 386.232,356.119 386.565,358.619 387.5,361C 384.888,363.151 384.888,363.985 387.5,363.5C 388.429,364.689 388.762,366.022 388.5,367.5C 390.167,367.5 391.833,367.5 393.5,367.5C 393.197,364.412 394.53,362.746 397.5,362.5C 397.231,364.429 397.731,366.095 399,367.5C 399.483,366.552 399.649,365.552 399.5,364.5C 410.342,365.378 421.009,367.211 431.5,370C 429.729,370.535 429.396,371.369 430.5,372.5C 439.476,371.332 447.809,373.166 455.5,378C 459.721,378.578 463.888,379.411 468,380.5C 471.789,379.438 475.623,379.271 479.5,380C 483.071,389.063 484.571,389.23 484,380.5C 485.78,379.361 487.614,378.361 489.5,377.5C 489.795,379.735 489.461,381.735 488.5,383.5C 486.175,384.655 485.008,386.655 485,389.5C 483.951,388.483 482.784,388.316 481.5,389C 480.44,390.298 479.274,391.465 478,392.5C 474.51,391.668 471.51,390.001 469,387.5C 468.055,387.905 467.388,388.572 467,389.5C 466.259,388.359 465.425,388.359 464.5,389.5C 462.831,388.329 461.331,386.996 460,385.5C 457.473,386.127 454.973,385.627 452.5,384C 445.422,383.751 438.422,382.917 431.5,381.5C 431.709,380.914 432.043,380.414 432.5,380C 429.5,379 426.5,378 423.5,377C 410.978,375.053 397.645,373.553 383.5,372.5C 383.762,373.978 383.429,375.311 382.5,376.5C 381.735,375.388 380.735,374.721 379.5,374.5C 380.11,373.609 380.443,372.609 380.5,371.5C 382.817,365.546 384.817,359.546 386.5,353.5 Z"/></g>
<g><path style="opacity:1" fill="#2cb8fe" d="M 387.5,351.5 C 388.167,351.5 388.833,351.5 389.5,351.5C 389.833,351.5 390.167,351.5 390.5,351.5C 394.153,361.759 395.486,361.759 394.5,351.5C 395.5,351.5 396.5,351.5 397.5,351.5C 397.104,354.044 397.771,356.211 399.5,358C 406.005,358.792 412.505,359.626 419,360.5C 420.561,360.397 422.061,360.063 423.5,359.5C 428.361,363.702 433.861,365.369 440,364.5C 445.23,366.627 450.73,367.961 456.5,368.5C 456.977,369.478 457.643,370.311 458.5,371C 465.309,373.155 472.309,373.988 479.5,373.5C 479.435,379.948 480.268,379.948 482,373.5C 482.833,374.5 483.667,375.5 484.5,376.5C 485.5,375.167 486.5,373.833 487.5,372.5C 488.183,372.863 488.85,373.196 489.5,373.5C 489.5,374.833 489.5,376.167 489.5,377.5C 487.614,378.361 485.78,379.361 484,380.5C 484.571,389.23 483.071,389.063 479.5,380C 475.623,379.271 471.789,379.438 468,380.5C 463.888,379.411 459.721,378.578 455.5,378C 447.809,373.166 439.476,371.332 430.5,372.5C 429.396,371.369 429.729,370.535 431.5,370C 421.009,367.211 410.342,365.378 399.5,364.5C 399.649,365.552 399.483,366.552 399,367.5C 397.731,366.095 397.231,364.429 397.5,362.5C 394.53,362.746 393.197,364.412 393.5,367.5C 391.833,367.5 390.167,367.5 388.5,367.5C 388.762,366.022 388.429,364.689 387.5,363.5C 384.888,363.985 384.888,363.151 387.5,361C 386.565,358.619 386.232,356.119 386.5,353.5C 386.328,352.508 386.662,351.842 387.5,351.5 Z"/></g>
<g><path style="opacity:1" fill="#d7e8fb" d="M 342.5,360.5 C 345.771,366.594 344.771,371.927 339.5,376.5C 338.526,375.365 337.359,374.365 336,373.5C 331.319,374.255 326.653,375.255 322,376.5C 320.674,376.245 319.674,375.578 319,374.5C 318.583,375.756 317.75,376.423 316.5,376.5C 315.108,373.993 314.108,371.327 313.5,368.5C 323.224,368.368 332.724,368.368 342,368.5C 342.497,365.854 342.664,363.187 342.5,360.5 Z"/></g>
<g><path style="opacity:1" fill="#fc908e" d="M 495.5,359.5 C 498.854,364.975 502.854,370.142 507.5,375C 509.525,376.336 511.525,376.836 513.5,376.5C 513.279,379.067 512.612,381.401 511.5,383.5C 509.833,383.5 508.167,383.5 506.5,383.5C 506.67,382.178 506.337,381.011 505.5,380C 502.467,377.377 499.134,375.21 495.5,373.5C 495.5,371.5 495.5,369.5 495.5,367.5C 495.5,364.833 495.5,362.167 495.5,359.5 Z"/></g>
<g><path style="opacity:1" fill="#2daafd" d="M 488.5,383.5 C 487.554,387.341 486.22,391.008 484.5,394.5C 484.631,395.239 484.464,395.906 484,396.5C 482.6,397.748 481.1,398.748 479.5,399.5C 477.362,399.703 475.695,400.703 474.5,402.5C 473.614,401.675 473.281,400.675 473.5,399.5C 471.167,400.167 468.833,400.833 466.5,401.5C 465.957,401.44 465.624,401.107 465.5,400.5C 466.665,399.416 467.998,398.583 469.5,398C 468.552,397.517 467.552,397.351 466.5,397.5C 466.891,394.162 465.724,393.162 463,394.5C 461.831,393.991 460.998,393.158 460.5,392C 456.107,391.983 451.94,391.15 448,389.5C 445.53,391.487 442.697,391.987 439.5,391C 434.467,388.603 429.134,387.103 423.5,386.5C 425.078,385.702 426.744,385.202 428.5,385C 420.491,384.435 412.491,383.769 404.5,383C 403.672,382.085 402.672,381.419 401.5,381C 397.911,380.793 394.411,380.293 391,379.5C 388.667,380.833 386.333,380.833 384,379.5C 382.667,380.167 381.667,381.167 381,382.5C 380.26,380.623 379.427,379.123 378.5,378C 378.648,376.744 378.982,375.577 379.5,374.5C 380.735,374.721 381.735,375.388 382.5,376.5C 383.429,375.311 383.762,373.978 383.5,372.5C 397.645,373.553 410.978,375.053 423.5,377C 426.5,378 429.5,379 432.5,380C 432.043,380.414 431.709,380.914 431.5,381.5C 438.422,382.917 445.422,383.751 452.5,384C 454.973,385.627 457.473,386.127 460,385.5C 461.331,386.996 462.831,388.329 464.5,389.5C 465.425,388.359 466.259,388.359 467,389.5C 467.388,388.572 468.055,387.905 469,387.5C 471.51,390.001 474.51,391.668 478,392.5C 479.274,391.465 480.44,390.298 481.5,389C 482.784,388.316 483.951,388.483 485,389.5C 485.008,386.655 486.175,384.655 488.5,383.5 Z"/></g>
<g><path style="opacity:1" fill="#b1d5f5" d="M 339.5,376.5 C 338.657,378.173 337.324,379.34 335.5,380C 328.192,383.035 321.858,381.868 316.5,376.5C 317.75,376.423 318.583,375.756 319,374.5C 319.674,375.578 320.674,376.245 322,376.5C 326.653,375.255 331.319,374.255 336,373.5C 337.359,374.365 338.526,375.365 339.5,376.5 Z"/></g>
<g><path style="opacity:1" fill="#0a2d55" d="M 384.5,321.5 C 384.989,322.995 385.655,324.329 386.5,325.5C 387.377,334.133 387.711,342.8 387.5,351.5C 386.662,351.842 386.328,352.508 386.5,353.5C 384.817,359.546 382.817,365.546 380.5,371.5C 376.924,377.413 372.591,382.746 367.5,387.5C 367.5,386.167 367.5,384.833 367.5,383.5C 368.5,383.5 369.5,383.5 370.5,383.5C 370.27,379.287 372.103,376.62 376,375.5C 379.37,367.697 382.37,359.697 385,351.5C 385.577,343.777 385.077,336.111 383.5,328.5C 383.503,325.975 383.837,323.641 384.5,321.5 Z"/></g>
<g><path style="opacity:1" fill="#fd819a" d="M 495.5,373.5 C 499.134,375.21 502.467,377.377 505.5,380C 506.337,381.011 506.67,382.178 506.5,383.5C 508.167,383.5 509.833,383.5 511.5,383.5C 510.956,385.716 509.956,387.716 508.5,389.5C 506.194,388.215 504.361,388.882 503,391.5C 501.849,387.508 499.516,384.508 496,382.5C 495.502,379.518 495.335,376.518 495.5,373.5 Z"/></g>
<g><path style="opacity:1" fill="#ab93c7" d="M 492.5,370.5 C 492.833,370.5 493.167,370.5 493.5,370.5C 492.918,378.242 490.918,385.575 487.5,392.5C 486.5,393.167 485.5,393.833 484.5,394.5C 486.22,391.008 487.554,387.341 488.5,383.5C 489.461,381.735 489.795,379.735 489.5,377.5C 490.736,375.351 491.736,373.018 492.5,370.5 Z"/></g>
<g><path style="opacity:1" fill="#d08295" d="M 514.5,375.5 C 513.975,380.6 512.975,385.6 511.5,390.5C 510.833,391.833 509.833,392.833 508.5,393.5C 508.5,392.167 508.5,390.833 508.5,389.5C 509.956,387.716 510.956,385.716 511.5,383.5C 512.612,381.401 513.279,379.067 513.5,376.5C 513.5,375.833 513.833,375.5 514.5,375.5 Z"/></g>
<g><path style="opacity:1" fill="#289ffd" d="M 465.5,404.5 C 464.032,405.779 463.365,407.446 463.5,409.5C 460.763,409.401 458.096,409.735 455.5,410.5C 457.244,408.394 456.744,407.061 454,406.5C 452.699,406.96 451.366,407.294 450,407.5C 441.466,406.605 432.966,405.439 424.5,404C 423.167,403 423.167,402 424.5,401C 426.833,400.667 429.167,400.333 431.5,400C 425.812,398.742 420.146,398.576 414.5,399.5C 412.763,397.154 410.43,396.154 407.5,396.5C 403.182,397.369 398.849,397.536 394.5,397C 392.519,396.395 392.185,395.395 393.5,394C 389.107,393.983 384.94,393.15 381,391.5C 379.417,391.493 377.751,391.826 376,392.5C 375.667,391.5 375.333,390.5 375,389.5C 373.334,390.34 373.167,389.84 374.5,388C 373.906,387.536 373.239,387.369 372.5,387.5C 373.008,383.871 375.008,382.371 378.5,383C 377.59,385.29 378.59,386.456 381.5,386.5C 387.459,385.586 393.459,385.253 399.5,385.5C 399.5,386.833 399.5,388.167 399.5,389.5C 408.156,390.333 416.823,391.166 425.5,392C 427.78,392.233 429.78,393.066 431.5,394.5C 435.833,395.167 440.167,395.833 444.5,396.5C 450.333,399.999 456.666,401.665 463.5,401.5C 463.285,403.179 463.952,404.179 465.5,404.5 Z"/></g>
<g><path style="opacity:1" fill="#033169" d="M 367.5,387.5 C 364.833,389.833 362.167,392.167 359.5,394.5C 356.645,395.117 353.978,396.117 351.5,397.5C 350.391,397.557 349.391,397.89 348.5,398.5C 353.422,395.43 358.256,392.097 363,388.5C 364.44,387.852 365.94,387.519 367.5,387.5 Z"/></g>
<g><path style="opacity:1" fill="#29a3fc" d="M 380.5,371.5 C 380.443,372.609 380.11,373.609 379.5,374.5C 378.982,375.577 378.648,376.744 378.5,378C 379.427,379.123 380.26,380.623 381,382.5C 381.667,381.167 382.667,380.167 384,379.5C 386.333,380.833 388.667,380.833 391,379.5C 394.411,380.293 397.911,380.793 401.5,381C 402.672,381.419 403.672,382.085 404.5,383C 412.491,383.769 420.491,384.435 428.5,385C 426.744,385.202 425.078,385.702 423.5,386.5C 429.134,387.103 434.467,388.603 439.5,391C 442.697,391.987 445.53,391.487 448,389.5C 451.94,391.15 456.107,391.983 460.5,392C 460.998,393.158 461.831,393.991 463,394.5C 465.724,393.162 466.891,394.162 466.5,397.5C 467.552,397.351 468.552,397.517 469.5,398C 467.998,398.583 466.665,399.416 465.5,400.5C 465.624,401.107 465.957,401.44 466.5,401.5C 466.443,402.609 466.11,403.609 465.5,404.5C 463.952,404.179 463.285,403.179 463.5,401.5C 456.666,401.665 450.333,399.999 444.5,396.5C 440.167,395.833 435.833,395.167 431.5,394.5C 429.78,393.066 427.78,392.233 425.5,392C 416.823,391.166 408.156,390.333 399.5,389.5C 399.5,388.167 399.5,386.833 399.5,385.5C 393.459,385.253 387.459,385.586 381.5,386.5C 378.59,386.456 377.59,385.29 378.5,383C 375.008,382.371 373.008,383.871 372.5,387.5C 369.17,389.112 366.17,391.278 363.5,394C 362.207,394.49 360.873,394.657 359.5,394.5C 362.167,392.167 364.833,389.833 367.5,387.5C 372.591,382.746 376.924,377.413 380.5,371.5 Z"/></g>
<g><path style="opacity:1" fill="#f87ba5" d="M 495.5,367.5 C 495.5,369.5 495.5,371.5 495.5,373.5C 495.335,376.518 495.502,379.518 496,382.5C 499.516,384.508 501.849,387.508 503,391.5C 504.361,388.882 506.194,388.215 508.5,389.5C 508.5,390.833 508.5,392.167 508.5,393.5C 508.167,394.833 507.833,396.167 507.5,397.5C 505.409,398.865 503.076,399.532 500.5,399.5C 500.53,398.503 500.03,397.836 499,397.5C 499.13,399.405 498.13,401.072 496,402.5C 495.39,399.173 494.89,395.839 494.5,392.5C 492.139,392.674 489.806,393.007 487.5,393.5C 487.5,393.167 487.5,392.833 487.5,392.5C 490.918,385.575 492.918,378.242 493.5,370.5C 494.167,369.5 494.833,368.5 495.5,367.5 Z"/></g>
<g><path style="opacity:1" fill="#2c98fc" d="M 372.5,387.5 C 373.239,387.369 373.906,387.536 374.5,388C 373.167,389.84 373.334,390.34 375,389.5C 375.333,390.5 375.667,391.5 376,392.5C 377.751,391.826 379.417,391.493 381,391.5C 384.94,393.15 389.107,393.983 393.5,394C 392.185,395.395 392.519,396.395 394.5,397C 398.849,397.536 403.182,397.369 407.5,396.5C 410.43,396.154 412.763,397.154 414.5,399.5C 420.146,398.576 425.812,398.742 431.5,400C 429.167,400.333 426.833,400.667 424.5,401C 423.167,402 423.167,403 424.5,404C 432.966,405.439 441.466,406.605 450,407.5C 451.366,407.294 452.699,406.96 454,406.5C 456.744,407.061 457.244,408.394 455.5,410.5C 437.137,414.872 418.47,416.539 399.5,415.5C 388.828,415.667 378.161,415.5 367.5,415C 359.435,412.619 351.435,410.953 343.5,410C 342.655,408.442 343.321,407.442 345.5,407C 344.62,405.644 344.286,404.144 344.5,402.5C 346.806,402.007 349.139,401.674 351.5,401.5C 351.5,400.167 351.5,398.833 351.5,397.5C 353.978,396.117 356.645,395.117 359.5,394.5C 360.873,394.657 362.207,394.49 363.5,394C 366.17,391.278 369.17,389.112 372.5,387.5 Z"/></g>
<g><path style="opacity:1" fill="#e073b5" d="M 487.5,392.5 C 487.5,392.833 487.5,393.167 487.5,393.5C 485.092,398.344 481.759,402.344 477.5,405.5C 474.395,409.053 470.395,411.053 465.5,411.5C 470.454,407.883 475.121,403.883 479.5,399.5C 481.1,398.748 482.6,397.748 484,396.5C 484.464,395.906 484.631,395.239 484.5,394.5C 485.5,393.833 486.5,393.167 487.5,392.5 Z"/></g>
<g><path style="opacity:1" fill="#fd71ad" d="M 500.5,399.5 C 498.836,402.145 498.503,405.145 499.5,408.5C 496.172,407.647 493.005,407.314 490,407.5C 489.691,408.766 489.191,409.933 488.5,411C 490.107,412.049 490.773,413.549 490.5,415.5C 487.466,416.398 484.299,418.398 481,421.5C 480.275,420.941 479.442,420.608 478.5,420.5C 475.313,421.865 471.98,422.699 468.5,423C 467.944,423.383 467.611,423.883 467.5,424.5C 466.504,424.586 465.671,424.252 465,423.5C 463.921,420.937 463.421,418.271 463.5,415.5C 466.187,415.664 468.854,415.497 471.5,415C 471.043,414.586 470.709,414.086 470.5,413.5C 474.721,413.492 477.721,411.659 479.5,408C 478.944,406.989 478.278,406.156 477.5,405.5C 481.759,402.344 485.092,398.344 487.5,393.5C 489.806,393.007 492.139,392.674 494.5,392.5C 494.89,395.839 495.39,399.173 496,402.5C 498.13,401.072 499.13,399.405 499,397.5C 500.03,397.836 500.53,398.503 500.5,399.5 Z"/></g>
<g><path style="opacity:1" fill="#e3eff9" d="M 268.5,331.5 C 266.62,350.618 271.62,367.618 283.5,382.5C 282.127,382.343 280.793,382.51 279.5,383C 278.415,385.172 277.081,387.172 275.5,389C 274.216,389.684 273.049,389.517 272,388.5C 271.505,390.473 271.338,392.473 271.5,394.5C 266.927,394.12 262.927,395.453 259.5,398.5C 260.025,399.192 260.692,399.692 261.5,400C 259.804,402.505 257.47,404.005 254.5,404.5C 254.709,405.086 255.043,405.586 255.5,406C 250.16,407.894 244.827,408.727 239.5,408.5C 239.5,410.833 239.5,413.167 239.5,415.5C 233.93,415.071 228.596,415.738 223.5,417.5C 222.923,420.645 220.923,422.145 217.5,422C 223.864,422.981 223.531,423.481 216.5,423.5C 216.5,424.5 216.5,425.5 216.5,426.5C 215.167,426.5 213.833,426.5 212.5,426.5C 212.5,428.167 212.5,429.833 212.5,431.5C 210.856,431.714 209.356,431.38 208,430.5C 207.51,431.793 207.343,433.127 207.5,434.5C 201.858,434.348 196.525,435.348 191.5,437.5C 181.691,435.76 172.691,432.094 164.5,426.5C 165.496,426.414 166.329,426.748 167,427.5C 167.617,426.551 167.451,425.718 166.5,425C 169.897,422.635 173.564,420.635 177.5,419C 176.234,418.691 175.067,418.191 174,417.5C 174.063,414.827 174.729,414.827 176,417.5C 178.54,415.98 181.373,414.98 184.5,414.5C 183.145,413.325 183.312,412.325 185,411.5C 185.49,412.793 185.657,414.127 185.5,415.5C 187.5,415.5 189.5,415.5 191.5,415.5C 190.96,410.515 191.793,405.849 194,401.5C 197.826,400.742 201.659,399.742 205.5,398.5C 207.104,396.821 207.771,394.821 207.5,392.5C 212.754,392.727 213.754,391.56 210.5,389C 212.74,388.023 215.073,387.523 217.5,387.5C 217.5,386.5 217.5,385.5 217.5,384.5C 219.144,384.286 220.644,384.62 222,385.5C 224.826,383.66 227.993,382.994 231.5,383.5C 231.34,381.801 231.506,380.134 232,378.5C 232.667,379.167 233.333,379.833 234,380.5C 235.598,377.075 237.598,376.742 240,379.5C 240.583,377.998 241.416,376.665 242.5,375.5C 246.563,374.368 250.563,373.035 254.5,371.5C 255.167,370.167 255.833,368.833 256.5,367.5C 257.192,368.025 257.692,368.692 258,369.5C 259.275,365.597 261.275,362.263 264,359.5C 264.333,360.167 264.667,360.833 265,361.5C 265.333,359.833 265.667,358.167 266,356.5C 267.183,357.731 268.349,357.731 269.5,356.5C 269.162,352.838 267.995,352.171 266,354.5C 263.593,352.125 264.093,351.125 267.5,351.5C 267.176,344.646 267.509,337.979 268.5,331.5 Z"/></g>
<g><path style="opacity:1" fill="#c9dff8" d="M 291.5,393.5 C 294.966,394.738 297.966,396.738 300.5,399.5C 302.522,401.419 302.856,403.586 301.5,406C 303.932,407.087 303.598,407.587 300.5,407.5C 300.54,410.425 299.707,413.091 298,415.5C 292.097,420.222 286.43,423.556 281,425.5C 280.055,425.095 279.388,424.428 279,423.5C 278.626,424.416 278.126,425.25 277.5,426C 275.527,426.495 273.527,426.662 271.5,426.5C 271.548,429.292 270.215,431.125 267.5,432C 269.78,432.233 271.78,433.066 273.5,434.5C 272.05,435.85 271.383,437.516 271.5,439.5C 275.042,439.187 278.375,439.521 281.5,440.5C 267.5,440.5 253.5,440.5 239.5,440.5C 238.126,438.622 236.126,437.622 233.5,437.5C 229.936,438.047 226.436,438.714 223,439.5C 222.5,439 222,438.5 221.5,438C 223.25,436.246 223.917,434.079 223.5,431.5C 227.49,432.163 231.49,432.83 235.5,433.5C 238.995,432.832 242.162,431.499 245,429.5C 245.667,430.167 246.333,430.833 247,431.5C 246.649,429.114 246.815,426.781 247.5,424.5C 250.373,423.225 253.373,422.392 256.5,422C 255.663,420.989 255.33,419.822 255.5,418.5C 257.262,418.643 258.929,418.309 260.5,417.5C 265.078,412.915 270.411,409.582 276.5,407.5C 277.23,405.659 277.897,403.825 278.5,402C 281.478,401.304 284.478,400.804 287.5,400.5C 287.331,395.959 287.998,395.626 289.5,399.5C 290.696,399.154 290.696,398.654 289.5,398C 291.991,397.374 291.991,396.541 289.5,395.5C 290.243,394.818 290.909,394.151 291.5,393.5 Z"/></g>
<g><path style="opacity:1" fill="#549ced" d="M 351.5,397.5 C 351.5,398.833 351.5,400.167 351.5,401.5C 349.139,401.674 346.806,402.007 344.5,402.5C 344.286,404.144 344.62,405.644 345.5,407C 343.321,407.442 342.655,408.442 343.5,410C 351.435,410.953 359.435,412.619 367.5,415C 378.161,415.5 388.828,415.667 399.5,415.5C 399.5,416.167 399.5,416.833 399.5,417.5C 393.979,417.782 388.646,418.449 383.5,419.5C 376.191,418.816 368.858,418.316 361.5,418C 352.444,416.964 343.777,414.797 335.5,411.5C 335.5,410.5 335.5,409.5 335.5,408.5C 332.984,408.245 330.65,407.411 328.5,406C 328.833,405.667 329.167,405.333 329.5,405C 326.243,403.957 322.91,403.457 319.5,403.5C 319.5,403.167 319.5,402.833 319.5,402.5C 329.617,403.47 339.284,402.136 348.5,398.5C 349.391,397.89 350.391,397.557 351.5,397.5 Z"/></g>
<g><path style="opacity:1" fill="#658fec" d="M 479.5,399.5 C 475.121,403.883 470.454,407.883 465.5,411.5C 464.508,411.328 463.842,411.662 463.5,412.5C 458.246,413.918 452.913,414.918 447.5,415.5C 437.911,417.088 428.244,417.755 418.5,417.5C 412.167,417.5 405.833,417.5 399.5,417.5C 399.5,416.833 399.5,416.167 399.5,415.5C 418.47,416.539 437.137,414.872 455.5,410.5C 458.096,409.735 460.763,409.401 463.5,409.5C 463.365,407.446 464.032,405.779 465.5,404.5C 466.11,403.609 466.443,402.609 466.5,401.5C 468.833,400.833 471.167,400.167 473.5,399.5C 473.281,400.675 473.614,401.675 474.5,402.5C 475.695,400.703 477.362,399.703 479.5,399.5 Z"/></g>
<g><path style="opacity:1" fill="#d3e5f9" d="M 283.5,382.5 C 286.5,384.833 289.167,387.5 291.5,390.5C 290.884,391.798 290.884,392.798 291.5,393.5C 290.909,394.151 290.243,394.818 289.5,395.5C 291.991,396.541 291.991,397.374 289.5,398C 290.696,398.654 290.696,399.154 289.5,399.5C 287.998,395.626 287.331,395.959 287.5,400.5C 284.478,400.804 281.478,401.304 278.5,402C 277.897,403.825 277.23,405.659 276.5,407.5C 270.411,409.582 265.078,412.915 260.5,417.5C 258.929,418.309 257.262,418.643 255.5,418.5C 255.33,419.822 255.663,420.989 256.5,422C 253.373,422.392 250.373,423.225 247.5,424.5C 246.815,426.781 246.649,429.114 247,431.5C 246.333,430.833 245.667,430.167 245,429.5C 242.162,431.499 238.995,432.832 235.5,433.5C 231.49,432.83 227.49,432.163 223.5,431.5C 223.917,434.079 223.25,436.246 221.5,438C 222,438.5 222.5,439 223,439.5C 226.436,438.714 229.936,438.047 233.5,437.5C 236.126,437.622 238.126,438.622 239.5,440.5C 225.478,440.722 211.478,440.388 197.5,439.5C 195.302,439.125 193.302,438.458 191.5,437.5C 196.525,435.348 201.858,434.348 207.5,434.5C 207.343,433.127 207.51,431.793 208,430.5C 209.356,431.38 210.856,431.714 212.5,431.5C 212.5,429.833 212.5,428.167 212.5,426.5C 213.833,426.5 215.167,426.5 216.5,426.5C 216.5,425.5 216.5,424.5 216.5,423.5C 223.531,423.481 223.864,422.981 217.5,422C 220.923,422.145 222.923,420.645 223.5,417.5C 228.596,415.738 233.93,415.071 239.5,415.5C 239.5,413.167 239.5,410.833 239.5,408.5C 244.827,408.727 250.16,407.894 255.5,406C 255.043,405.586 254.709,405.086 254.5,404.5C 257.47,404.005 259.804,402.505 261.5,400C 260.692,399.692 260.025,399.192 259.5,398.5C 262.927,395.453 266.927,394.12 271.5,394.5C 271.338,392.473 271.505,390.473 272,388.5C 273.049,389.517 274.216,389.684 275.5,389C 277.081,387.172 278.415,385.172 279.5,383C 280.793,382.51 282.127,382.343 283.5,382.5 Z"/></g>
<g><path style="opacity:1" fill="#bad6f4" d="M 300.5,399.5 C 302.855,401.963 305.522,404.296 308.5,406.5C 310.762,409.367 312.762,412.367 314.5,415.5C 313.205,417.81 311.871,420.143 310.5,422.5C 310.709,423.086 311.043,423.586 311.5,424C 309.47,425.896 307.803,428.063 306.5,430.5C 307.934,431.23 309.1,432.23 310,433.5C 311.183,432.269 312.349,432.269 313.5,433.5C 313.291,434.086 312.957,434.586 312.5,435C 317.473,435.792 317.306,436.958 312,438.5C 303.899,434.87 295.732,435.037 287.5,439C 308.831,439.5 330.164,439.667 351.5,439.5C 357.69,439.177 363.69,439.51 369.5,440.5C 340.167,440.5 310.833,440.5 281.5,440.5C 278.375,439.521 275.042,439.187 271.5,439.5C 271.383,437.516 272.05,435.85 273.5,434.5C 271.78,433.066 269.78,432.233 267.5,432C 270.215,431.125 271.548,429.292 271.5,426.5C 273.527,426.662 275.527,426.495 277.5,426C 278.126,425.25 278.626,424.416 279,423.5C 279.388,424.428 280.055,425.095 281,425.5C 286.43,423.556 292.097,420.222 298,415.5C 299.707,413.091 300.54,410.425 300.5,407.5C 303.598,407.587 303.932,407.087 301.5,406C 302.856,403.586 302.522,401.419 300.5,399.5 Z"/></g>
<g><path style="opacity:1" fill="#7ba3e2" d="M 319.5,403.5 C 322.91,403.457 326.243,403.957 329.5,405C 329.167,405.333 328.833,405.667 328.5,406C 330.65,407.411 332.984,408.245 335.5,408.5C 335.5,409.5 335.5,410.5 335.5,411.5C 343.777,414.797 352.444,416.964 361.5,418C 368.858,418.316 376.191,418.816 383.5,419.5C 383.5,419.833 383.5,420.167 383.5,420.5C 380.834,420.933 378.168,421.433 375.5,422C 374.316,423.145 374.316,424.312 375.5,425.5C 374.234,426.09 372.901,426.59 371.5,427C 371.833,427.333 372.167,427.667 372.5,428C 370.256,428.906 367.923,429.406 365.5,429.5C 361.303,427.768 356.97,426.435 352.5,425.5C 349.951,424.25 348.618,422.25 348.5,419.5C 346.409,419.682 344.409,419.348 342.5,418.5C 341.614,417.675 341.281,416.675 341.5,415.5C 339.5,415.5 337.5,415.5 335.5,415.5C 335.5,414.5 335.5,413.5 335.5,412.5C 332.68,412.752 330.014,412.252 327.5,411C 325.507,409.001 323.173,407.501 320.5,406.5C 319.614,405.675 319.281,404.675 319.5,403.5 Z"/></g>
<g><path style="opacity:1" fill="#f275b0" d="M 507.5,397.5 C 503.5,403.5 499.5,409.5 495.5,415.5C 487.443,423.571 478.11,429.571 467.5,433.5C 468.79,432.065 470.456,431.065 472.5,430.5C 471.345,429.05 469.845,428.05 468,427.5C 467.517,426.552 467.351,425.552 467.5,424.5C 467.611,423.883 467.944,423.383 468.5,423C 471.98,422.699 475.313,421.865 478.5,420.5C 479.442,420.608 480.275,420.941 481,421.5C 484.299,418.398 487.466,416.398 490.5,415.5C 490.773,413.549 490.107,412.049 488.5,411C 489.191,409.933 489.691,408.766 490,407.5C 493.005,407.314 496.172,407.647 499.5,408.5C 498.503,405.145 498.836,402.145 500.5,399.5C 503.076,399.532 505.409,398.865 507.5,397.5 Z"/></g>
<g><path style="opacity:1" fill="#acccf0" d="M 291.5,390.5 C 296.305,393.071 300.972,395.904 305.5,399C 308.154,399.941 310.821,400.774 313.5,401.5C 313.611,402.117 313.944,402.617 314.5,403C 312.993,403.837 312.493,405.004 313,406.5C 314.491,408.004 316.324,408.837 318.5,409C 319.337,410.011 319.67,411.178 319.5,412.5C 320.552,412.351 321.552,412.517 322.5,413C 325.696,417.869 330.03,421.203 335.5,423C 337.833,425.667 340.167,428.333 342.5,431C 342.167,431.333 341.833,431.667 341.5,432C 345.839,433.174 349.173,435.674 351.5,439.5C 330.164,439.667 308.831,439.5 287.5,439C 295.732,435.037 303.899,434.87 312,438.5C 317.306,436.958 317.473,435.792 312.5,435C 312.957,434.586 313.291,434.086 313.5,433.5C 312.349,432.269 311.183,432.269 310,433.5C 309.1,432.23 307.934,431.23 306.5,430.5C 307.803,428.063 309.47,425.896 311.5,424C 311.043,423.586 310.709,423.086 310.5,422.5C 311.871,420.143 313.205,417.81 314.5,415.5C 312.762,412.367 310.762,409.367 308.5,406.5C 305.522,404.296 302.855,401.963 300.5,399.5C 297.966,396.738 294.966,394.738 291.5,393.5C 290.884,392.798 290.884,391.798 291.5,390.5 Z"/></g>
<g><path style="opacity:1" fill="#a994d2" d="M 399.5,417.5 C 405.833,417.5 412.167,417.5 418.5,417.5C 420.017,419.936 419.684,422.102 417.5,424C 421.29,425.819 421.29,427.819 417.5,430C 417.833,430.333 418.167,430.667 418.5,431C 417.552,431.483 416.552,431.649 415.5,431.5C 415.5,434.167 415.5,436.833 415.5,439.5C 420.833,439.5 426.167,439.5 431.5,439.5C 433.099,439.232 434.432,439.566 435.5,440.5C 423.5,440.5 411.5,440.5 399.5,440.5C 399.5,440.167 399.5,439.833 399.5,439.5C 399.5,437.5 399.5,435.5 399.5,433.5C 404.74,432.587 404.74,431.587 399.5,430.5C 400.376,429.749 401.376,429.249 402.5,429C 402.167,428.667 401.833,428.333 401.5,428C 398.448,428.021 395.448,428.188 392.5,428.5C 392.307,425.525 393.307,423.025 395.5,421C 391.514,420.501 387.514,420.334 383.5,420.5C 383.5,420.167 383.5,419.833 383.5,419.5C 388.646,418.449 393.979,417.782 399.5,417.5 Z"/></g>
<g><path style="opacity:1" fill="#fb6bb5" d="M 477.5,405.5 C 478.278,406.156 478.944,406.989 479.5,408C 477.721,411.659 474.721,413.492 470.5,413.5C 470.709,414.086 471.043,414.586 471.5,415C 468.854,415.497 466.187,415.664 463.5,415.5C 463.421,418.271 463.921,420.937 465,423.5C 465.671,424.252 466.504,424.586 467.5,424.5C 467.351,425.552 467.517,426.552 468,427.5C 469.845,428.05 471.345,429.05 472.5,430.5C 470.456,431.065 468.79,432.065 467.5,433.5C 460.832,434.207 454.165,433.873 447.5,432.5C 447.5,428.167 447.5,423.833 447.5,419.5C 449.564,419.313 451.564,418.813 453.5,418C 456.901,416.165 460.235,414.332 463.5,412.5C 463.842,411.662 464.508,411.328 465.5,411.5C 470.395,411.053 474.395,409.053 477.5,405.5 Z"/></g>
<g><path style="opacity:1" fill="#949fd7" d="M 383.5,420.5 C 387.514,420.334 391.514,420.501 395.5,421C 393.307,423.025 392.307,425.525 392.5,428.5C 395.448,428.188 398.448,428.021 401.5,428C 401.833,428.333 402.167,428.667 402.5,429C 401.376,429.249 400.376,429.749 399.5,430.5C 404.74,431.587 404.74,432.587 399.5,433.5C 399.5,435.5 399.5,437.5 399.5,439.5C 391.034,440.343 383.034,439.009 375.5,435.5C 377.795,433.52 380.461,432.353 383.5,432C 381.782,431.654 380.115,431.154 378.5,430.5C 377.41,429.609 377.41,428.609 378.5,427.5C 377.398,426.824 376.398,426.158 375.5,425.5C 374.316,424.312 374.316,423.145 375.5,422C 378.168,421.433 380.834,420.933 383.5,420.5 Z"/></g>
<g><path style="opacity:1" fill="#bf8ace" d="M 447.5,415.5 C 446.448,417.256 444.781,417.923 442.5,417.5C 435.482,417.047 429.482,419.214 424.5,424C 425.5,424.833 426.5,425.667 427.5,426.5C 426.833,427.5 426.167,428.5 425.5,429.5C 427.991,430.541 427.991,431.374 425.5,432C 427.013,434.454 426.346,436.121 423.5,437C 426.31,437.782 428.977,438.616 431.5,439.5C 426.167,439.5 420.833,439.5 415.5,439.5C 415.5,436.833 415.5,434.167 415.5,431.5C 416.552,431.649 417.552,431.483 418.5,431C 418.167,430.667 417.833,430.333 417.5,430C 421.29,427.819 421.29,425.819 417.5,424C 419.684,422.102 420.017,419.936 418.5,417.5C 428.244,417.755 437.911,417.088 447.5,415.5 Z"/></g>
<g><path style="opacity:1" fill="#d581c8" d="M 442.5,417.5 C 438.418,419.931 435.751,423.598 434.5,428.5C 437.306,430.838 438.973,433.505 439.5,436.5C 445.128,437.495 450.794,437.829 456.5,437.5C 456.5,437.833 456.5,438.167 456.5,438.5C 449.526,439.413 442.526,440.08 435.5,440.5C 434.432,439.566 433.099,439.232 431.5,439.5C 428.977,438.616 426.31,437.782 423.5,437C 426.346,436.121 427.013,434.454 425.5,432C 427.991,431.374 427.991,430.541 425.5,429.5C 426.167,428.5 426.833,427.5 427.5,426.5C 426.5,425.667 425.5,424.833 424.5,424C 429.482,419.214 435.482,417.047 442.5,417.5 Z"/></g>
<g><path style="opacity:1" fill="#92afe1" d="M 313.5,401.5 C 315.5,401.833 317.5,402.167 319.5,402.5C 319.5,402.833 319.5,403.167 319.5,403.5C 319.281,404.675 319.614,405.675 320.5,406.5C 323.173,407.501 325.507,409.001 327.5,411C 330.014,412.252 332.68,412.752 335.5,412.5C 335.5,413.5 335.5,414.5 335.5,415.5C 337.5,415.5 339.5,415.5 341.5,415.5C 341.281,416.675 341.614,417.675 342.5,418.5C 344.409,419.348 346.409,419.682 348.5,419.5C 348.618,422.25 349.951,424.25 352.5,425.5C 356.97,426.435 361.303,427.768 365.5,429.5C 367.923,429.406 370.256,428.906 372.5,428C 372.167,427.667 371.833,427.333 371.5,427C 372.901,426.59 374.234,426.09 375.5,425.5C 376.398,426.158 377.398,426.824 378.5,427.5C 377.41,428.609 377.41,429.609 378.5,430.5C 380.115,431.154 381.782,431.654 383.5,432C 380.461,432.353 377.795,433.52 375.5,435.5C 383.034,439.009 391.034,440.343 399.5,439.5C 399.5,439.833 399.5,440.167 399.5,440.5C 389.5,440.5 379.5,440.5 369.5,440.5C 363.69,439.51 357.69,439.177 351.5,439.5C 349.173,435.674 345.839,433.174 341.5,432C 341.833,431.667 342.167,431.333 342.5,431C 340.167,428.333 337.833,425.667 335.5,423C 330.03,421.203 325.696,417.869 322.5,413C 321.552,412.517 320.552,412.351 319.5,412.5C 319.67,411.178 319.337,410.011 318.5,409C 316.324,408.837 314.491,408.004 313,406.5C 312.493,405.004 312.993,403.837 314.5,403C 313.944,402.617 313.611,402.117 313.5,401.5 Z"/></g>
<g><path style="opacity:1" fill="#e574be" d="M 463.5,412.5 C 460.235,414.332 456.901,416.165 453.5,418C 451.564,418.813 449.564,419.313 447.5,419.5C 447.5,423.833 447.5,428.167 447.5,432.5C 454.165,433.873 460.832,434.207 467.5,433.5C 464.374,435.99 460.708,437.323 456.5,437.5C 450.794,437.829 445.128,437.495 439.5,436.5C 438.973,433.505 437.306,430.838 434.5,428.5C 435.751,423.598 438.418,419.931 442.5,417.5C 444.781,417.923 446.448,417.256 447.5,415.5C 452.913,414.918 458.246,413.918 463.5,412.5 Z"/></g>
<g><path style="opacity:1" fill="#222a40" d="M 456.5,438.5 C 453.851,440.109 450.851,440.943 447.5,441C 372.834,441.5 298.167,441.667 223.5,441.5C 215.493,441.666 207.493,441.5 199.5,441C 198.584,440.722 197.918,440.222 197.5,439.5C 211.478,440.388 225.478,440.722 239.5,440.5C 253.5,440.5 267.5,440.5 281.5,440.5C 310.833,440.5 340.167,440.5 369.5,440.5C 379.5,440.5 389.5,440.5 399.5,440.5C 411.5,440.5 423.5,440.5 435.5,440.5C 442.526,440.08 449.526,439.413 456.5,438.5 Z"/></g>
<g><path style="opacity:1" fill="#06060f" d="M 495.5,415.5 C 495.657,416.873 495.49,418.207 495,419.5C 492.963,421.436 490.797,423.102 488.5,424.5C 489.309,426.071 489.643,427.738 489.5,429.5C 488.178,429.67 487.011,429.337 486,428.5C 486.077,429.738 485.911,430.738 485.5,431.5C 483.821,429.896 481.821,429.229 479.5,429.5C 479.785,431.288 479.452,432.955 478.5,434.5C 471.787,439.761 464.12,441.928 455.5,441C 456.672,441.419 457.672,442.085 458.5,443C 418.649,442.689 378.816,443.189 339,444.5C 300.405,443.369 261.905,442.369 223.5,441.5C 298.167,441.667 372.834,441.5 447.5,441C 450.851,440.943 453.851,440.109 456.5,438.5C 456.5,438.167 456.5,437.833 456.5,437.5C 460.708,437.323 464.374,435.99 467.5,433.5C 478.11,429.571 487.443,423.571 495.5,415.5 Z"/></g>
</svg>
